<svg width="16" height="16" viewBox="0 0 16 16" fill="none" xmlns="http://www.w3.org/2000/svg">
    <path d="M6.08301 8.83594C6.49722 8.83594 6.83301 8.50015 6.83301 8.08594C6.83301 7.67172 6.49722 7.33594 6.08301 7.33594C5.66879 7.33594 5.33301 7.67172 5.33301 8.08594C5.33301 8.50015 5.66879 8.83594 6.08301 8.83594Z" fill="#808080"/>
    <path d="M6.08301 12.8359C6.49722 12.8359 6.83301 12.5002 6.83301 12.0859C6.83301 11.6717 6.49722 11.3359 6.08301 11.3359C5.66879 11.3359 5.33301 11.6717 5.33301 12.0859C5.33301 12.5002 5.66879 12.8359 6.08301 12.8359Z" fill="#808080"/>
    <path d="M10.083 8.83594C10.4972 8.83594 10.833 8.50015 10.833 8.08594C10.833 7.67172 10.4972 7.33594 10.083 7.33594C9.66879 7.33594 9.33301 7.67172 9.33301 8.08594C9.33301 8.50015 9.66879 8.83594 10.083 8.83594Z" fill="#808080"/>
    <path d="M10.083 12.8359C10.4972 12.8359 10.833 12.5002 10.833 12.0859C10.833 11.6717 10.4972 11.3359 10.083 11.3359C9.66879 11.3359 9.33301 11.6717 9.33301 12.0859C9.33301 12.5002 9.66879 12.8359 10.083 12.8359Z" fill="#808080"/>
    <path d="M6.08301 4.83594C6.49722 4.83594 6.83301 4.50015 6.83301 4.08594C6.83301 3.67172 6.49722 3.33594 6.08301 3.33594C5.66879 3.33594 5.33301 3.67172 5.33301 4.08594C5.33301 4.50015 5.66879 4.83594 6.08301 4.83594Z" fill="#808080"/>
    <path d="M10.083 4.83594C10.4972 4.83594 10.833 4.50015 10.833 4.08594C10.833 3.67172 10.4972 3.33594 10.083 3.33594C9.66879 3.33594 9.33301 3.67172 9.33301 4.08594C9.33301 4.50015 9.66879 4.83594 10.083 4.83594Z" fill="#808080"/>
</svg>
