<svg width="16" height="16" viewBox="0 0 16 16" fill="none" xmlns="http://www.w3.org/2000/svg">
<g clip-path="url(#clip0_2532_45970)">
<path fill-rule="evenodd" clip-rule="evenodd" d="M13.367 12.0942C14.2346 10.9586 14.75 9.53947 14.75 8C14.75 4.27208 11.7279 1.25 8 1.25C4.27208 1.25 1.25 4.27208 1.25 8C1.25 9.53947 1.76537 10.9586 2.63299 12.0942C2.95706 11.5069 3.46273 11.0086 4.05572 10.6231C4.44157 10.3723 4.87573 10.1603 5.34581 9.99259C4.52024 9.25984 4 8.19067 4 7C4 4.79086 5.79086 3 8 3C10.2091 3 12 4.79086 12 7C12 8.19067 11.4798 9.25984 10.6542 9.99259C11.1243 10.1603 11.5584 10.3723 11.9443 10.6231C12.5373 11.0086 13.0429 11.5069 13.367 12.0942ZM12.2207 13.268C12.1221 12.7916 11.7718 12.3 11.1268 11.8808C10.3604 11.3827 9.25705 11.05 8 11.05C6.74295 11.05 5.63956 11.3827 4.87321 11.8808C4.2282 12.3 3.87787 12.7916 3.77929 13.268C4.93519 14.1953 6.40281 14.75 8 14.75C9.59719 14.75 11.0648 14.1953 12.2207 13.268ZM8 16C12.4183 16 16 12.4183 16 8C16 3.58172 12.4183 0 8 0C3.58172 0 0 3.58172 0 8C0 12.4183 3.58172 16 8 16ZM8 9.5C9.38071 9.5 10.5 8.38071 10.5 7C10.5 5.61929 9.38071 4.5 8 4.5C6.61929 4.5 5.5 5.61929 5.5 7C5.5 8.38071 6.61929 9.5 8 9.5Z" fill="#808080"/>
</g>
<defs>
<clipPath id="clip0_2532_45970">
<rect width="16" height="16" fill="white"/>
</clipPath>
</defs>
</svg>
