<svg width="16" height="16" viewBox="0 0 16 16" fill="none" xmlns="http://www.w3.org/2000/svg">
<path fill-rule="evenodd" clip-rule="evenodd" d="M4.78471 2.97158C2.0837 4.11949 0.82466 7.23964 1.97256 9.94065C3.12046 12.6417 6.24062 13.9007 8.94163 12.7528C9.42643 12.5468 9.86478 12.2772 10.2511 11.9579L13.6467 15.3535C13.842 15.5488 14.1586 15.5488 14.3539 15.3535C14.5491 15.1583 14.5491 14.8417 14.3539 14.6464L10.9581 11.2506C12.1816 9.76949 12.5571 7.67397 11.7538 5.78373C10.6059 3.08273 7.48572 1.82368 4.78471 2.97158ZM2.8929 9.54952C1.96101 7.3568 2.98312 4.8238 5.17584 3.89192C7.36856 2.96003 9.90156 3.98214 10.8334 6.17487C11.7653 8.36759 10.7432 10.9006 8.5505 11.8325C6.35777 12.7643 3.82478 11.7422 2.8929 9.54952Z" fill="#808080"/>
</svg>
