<svg width="14" height="14" viewBox="0 0 14 14" fill="none" xmlns="http://www.w3.org/2000/svg">
    <path fill-rule="evenodd" clip-rule="evenodd" d="M7.09419 3.55458C7.30569 2.79485 8.33532 2.68065 8.70816 3.37556L10.2637 6.2747L11.8813 3.74206C12.0114 3.53843 12.2819 3.47879 12.4856 3.60886C12.6892 3.73893 12.7488 4.00944 12.6188 4.21307L11.0011 6.74571C10.6413 7.30889 9.80858 7.27725 9.49263 6.68838L7.93713 3.78925L6.0169 10.6869C5.79275 11.4921 4.67521 11.5547 4.3625 10.7796L3.27409 8.08178L2.11681 9.86125C1.98508 10.0638 1.71408 10.1212 1.51153 9.98949C1.30897 9.85775 1.25156 9.58676 1.38329 9.3842L2.54057 7.60474C2.9265 7.01131 3.82069 7.09794 4.08554 7.75441L5.17396 10.4523L4.76823 10.6159L5.17396 10.4523L7.09419 3.55458Z" fill="#9F9F9F"/>
</svg>
