<svg width="132" height="153" viewBox="0 0 132 153" fill="none" xmlns="http://www.w3.org/2000/svg">
    <ellipse cx="33.878" cy="133.355" rx="31.2189" ry="13.9268" transform="rotate(9.8419 33.878 133.355)" fill="#151B31"/>
    <path d="M59.9595 58.8972C60.0247 53.7821 60.0538 47.9773 60.119 42.8621C60.2614 39.7985 60.0866 36.7293 59.597 33.6964C59.1476 31.3999 58.2777 29.0833 56.4944 27.4363C56.0346 26.9506 55.4071 26.6266 54.7183 26.5191C53.3555 26.4052 52.3551 27.6372 51.7316 28.7486C48.3318 34.7743 47.2879 41.6771 46.2875 48.4192" fill="white"/>
    <path d="M59.9595 58.8972C60.0247 53.7821 60.0538 47.9773 60.119 42.8621C60.2614 39.7985 60.0866 36.7293 59.597 33.6964C59.1476 31.3999 58.2777 29.0833 56.4944 27.4363C56.0346 26.9506 55.4071 26.6266 54.7183 26.5191C53.3555 26.4052 52.3551 27.6372 51.7316 28.7486C48.3318 34.7743 47.2879 41.6771 46.2875 48.4192" stroke="#151B31" stroke-width="2" stroke-miterlimit="10"/>
    <path d="M15.8713 91.0015C14.8724 74.4586 13.1646 57.5934 14.2215 44.9494C14.5695 40.8314 15.0915 35.6887 15.8649 31.6222C17.1537 25.0618 23.7399 24.2498 25.8085 32.5374C27.4235 38.602 28.5887 44.7775 29.2949 51.0136L29.7331 56.6525C29.63 54.6741 29.4818 52.8181 29.2949 51.0136L28.8309 45.1298C39.9668 40.6187 53.6675 46.2705 60.0217 56.4785C63.1794 61.5568 64.8292 67.5759 68.7215 72.1128C74.6375 79.0148 84.2976 81.019 93.1586 83.0684C96.9092 83.9255 100.711 84.8857 104.03 86.8448C107.349 88.8039 110.178 91.9102 110.926 95.6931C111.673 99.476 108.992 106.049 100.428 105.933C93.1263 105.837 85.8313 105.418 78.5169 105.16C72.9039 104.967 66.7818 104.922 62.3287 108.344C59.055 110.857 57.2506 114.91 56.619 118.983C55.9875 123.056 56.387 127.213 56.793 131.318C54.6342 143.279 40.173 144.284 27.5678 139.496C22.651 137.691 18.141 134.929 14.2989 131.37C17.1087 120.304 16.7929 105.766 15.8713 91.0015Z" fill="white" stroke="#151B31" stroke-width="2" stroke-miterlimit="10"/>
    <path d="M61.8103 108.286C61.8103 109.534 61.1226 110.748 59.8425 111.687C58.563 112.625 56.7469 113.236 54.6966 113.236C52.6464 113.236 50.8303 112.625 49.5508 111.687C48.2707 110.748 47.583 109.534 47.583 108.286C47.583 107.038 48.2707 105.824 49.5508 104.885C50.8303 103.947 52.6464 103.336 54.6966 103.336C56.7469 103.336 58.563 103.947 59.8425 104.885C61.1226 105.824 61.8103 107.038 61.8103 108.286Z" stroke="#151B31" stroke-width="2"/>
    <path d="M70.8561 68.7049C70.4377 67.6765 69.2649 67.1819 68.2365 67.6002C67.2081 68.0186 66.7136 69.1914 67.1319 70.2198L68.1801 72.7966C68.5984 73.825 69.7712 74.3196 70.7996 73.9012C71.828 73.4829 72.3226 72.3101 71.9043 71.2817L70.8561 68.7049Z" fill="#151B31"/>
    <path d="M53.5966 74.1531C53.2299 73.0244 53.8476 71.8121 54.9763 71.4454C56.1051 71.0787 57.3174 71.6964 57.6841 72.8251L58.5879 75.6071C58.9546 76.7358 58.3369 77.9481 57.2082 78.3148C56.0795 78.6815 54.8672 78.0638 54.5005 76.9351L53.5966 74.1531Z" fill="#151B31"/>
    <path d="M108.143 74.4756C108.619 75.1882 108.902 76.0071 108.966 76.8555C109.029 77.7039 108.871 78.5542 108.506 79.3267C108.132 80.0997 107.539 80.7522 106.797 81.2068C106.055 81.6614 105.195 81.8991 104.319 81.8918C99.2109 81.817 98.6666 77.9864 99.6924 74.9927C100.021 74.182 100.586 73.4831 101.318 72.9825C102.05 72.4818 102.916 72.2013 103.809 72.1758C104.672 72.1718 105.522 72.3805 106.279 72.7826C107.037 73.1847 107.678 73.7671 108.143 74.4756Z" fill="#151B31"/>
    <path d="M44.0775 78.4967C42.8575 74.8163 44.9718 70.865 48.7108 69.8381L72.1008 63.4142C75.6173 62.4484 79.267 64.4416 80.3553 67.9221L81.4159 71.314C82.5184 74.8397 80.591 78.5983 77.0845 79.7607L54.1491 87.3634C50.6 88.5399 46.7692 86.6165 45.5927 83.0674L44.0775 78.4967Z" fill="#F1F78E" fill-opacity="0.6"/>
    <path fill-rule="evenodd" clip-rule="evenodd" d="M73.0267 63.7676L48.0191 70.6358C45.021 71.4592 43.3256 74.6276 44.3039 77.5788L45.9238 82.4656C46.8672 85.3115 49.939 86.8538 52.7849 85.9105L77.3065 77.7819C80.1182 76.8498 81.6637 73.8359 80.7797 71.0087L79.6458 67.3823C78.7731 64.5914 75.8465 62.9931 73.0267 63.7676ZM47.5399 68.8908C43.5424 69.9887 41.2818 74.2132 42.5862 78.1482L44.2061 83.035C45.464 86.8296 49.5597 88.886 53.3543 87.6281L77.8759 79.4995C81.6249 78.2568 83.6855 74.2382 82.5068 70.4687L81.3729 66.8423C80.2093 63.121 76.3072 60.99 72.5475 62.0226L47.5399 68.8908Z" fill="#151B31"/>
    <path d="M43.2516 79.1675L28.3048 81.2995C24.7377 81.8084 22.4237 85.3285 23.371 88.805V88.805" stroke="#151B31" stroke-width="2.26198"/>
    <path d="M109.842 7.09953C115.85 2.74899 120.56 4.8408 123.777 8.52786C127.699 13.0223 128.684 20.7892 123.822 24.2444C119.561 27.2721 113.541 25.4565 109.294 30.3146L104.932 38.1077" stroke="#151B31" stroke-width="2.5" stroke-linecap="round" stroke-linejoin="round"/>
    <path d="M100.562 45.043L99.2454 47.6743" stroke="#151B31" stroke-width="2.5" stroke-linecap="round"/>
    <path d="M84.2183 1.43116L84.2192 27.8624" stroke="#151B31" stroke-width="2.5" stroke-linecap="round" stroke-linejoin="round"/>
    <path d="M83.8623 36.0508L84.0202 38.9887" stroke="#151B31" stroke-width="2.5" stroke-linecap="round"/>
</svg>
