<svg width="128" height="128" viewBox="0 0 128 128" fill="none" xmlns="http://www.w3.org/2000/svg">
    <g clip-path="url(#clip0_2532_45862)">
        <ellipse cx="39.8819" cy="113.355" rx="31.2189" ry="13.9268" transform="rotate(9.8419 39.8819 113.355)" fill="#151B31"/>
        <path d="M65.9712 39.1238C66.0364 34.0086 66.0655 28.2038 66.1307 23.0887C66.2732 20.025 66.0983 16.9559 65.6087 13.9229C65.1593 11.6265 64.2894 9.30989 62.5061 7.66286C62.0463 7.17717 61.4188 6.85315 60.73 6.74562C59.3672 6.6318 58.3668 7.86373 57.7434 8.97514C54.3435 15.0009 53.2996 21.9037 52.2992 28.6458" fill="#FEFDFB"/>
        <path d="M65.9712 39.1238C66.0364 34.0086 66.0655 28.2038 66.1307 23.0887C66.2732 20.025 66.0983 16.9559 65.6087 13.9229C65.1593 11.6265 64.2894 9.30989 62.5061 7.66286C62.0463 7.17717 61.4188 6.85315 60.73 6.74562C59.3672 6.6318 58.3668 7.86373 57.7434 8.97514C54.3435 15.0009 53.2996 21.9037 52.2992 28.6458" stroke="#151B31" stroke-width="2" stroke-miterlimit="10"/>
        <path d="M21.8879 71.2281C20.8891 54.6851 19.1813 37.82 20.2381 25.1759C20.5861 21.0579 21.1082 15.9152 21.8815 11.8488C23.1703 5.28833 29.7565 4.47636 31.8252 12.7639C33.4401 18.8286 34.6053 25.0041 35.3115 31.2402L35.7498 36.8791C35.6467 34.9006 35.4984 33.0446 35.3115 31.2402L34.8475 25.3564C45.9834 20.8453 59.6841 26.4971 66.0383 36.7051C69.196 41.7833 70.8458 47.8024 74.7382 52.3393C80.6541 59.2414 90.3142 61.2456 99.1752 63.2949C102.926 64.152 106.728 65.1123 110.047 67.0714C113.366 69.0305 116.195 72.1367 116.942 75.9196C117.69 79.7025 115.009 86.2759 106.444 86.1599C99.1429 86.0632 91.8479 85.6443 84.5336 85.3865C78.9205 85.1932 72.7984 85.1481 68.3453 88.5701C65.0716 91.0834 63.2672 95.137 62.6356 99.2099C62.0041 103.283 62.4036 107.439 62.8096 111.545C60.6508 123.506 46.1896 124.511 33.5845 119.723C28.6676 117.918 24.1576 115.156 20.3155 111.596C23.1253 100.531 22.8095 85.9923 21.8879 71.2281Z" fill="#FEFDFB" stroke="#151B31" stroke-width="2" stroke-miterlimit="10"/>
        <path d="M76.8639 48.9354C76.4456 47.907 75.2728 47.4124 74.2443 47.8307C73.2159 48.249 72.7214 49.4218 73.1397 50.4502L74.1879 53.0271C74.6062 54.0555 75.779 54.55 76.8074 54.1317C77.8358 53.7134 78.3304 52.5406 77.9121 51.5122L76.8639 48.9354Z" fill="#151B31"/>
        <path d="M59.6064 54.3797C59.2397 53.2509 59.8574 52.0387 60.9861 51.6719C62.1148 51.3052 63.3271 51.9229 63.6938 53.0517L64.5977 55.8336C64.9644 56.9624 64.3467 58.1746 63.218 58.5414C62.0892 58.9081 60.8769 58.2904 60.5102 57.1616L59.6064 54.3797Z" fill="#151B31"/>
        <path fill-rule="evenodd" clip-rule="evenodd" d="M57.7973 76.4741L58.4906 78.6106C58.9274 79.9566 59.9792 82.0726 61.6852 83.9204C63.3829 85.7592 65.6806 87.284 68.6255 87.5934L68.4225 89.526C64.8853 89.1544 62.18 87.3209 60.2574 85.2386C59.0221 83.9007 58.0902 82.4401 57.4461 81.1459L55.2041 85.2233L53.5013 84.287L57.7973 76.4741Z" fill="#151B31"/>
        <path d="M114.151 54.706C114.627 55.4187 114.91 56.2375 114.974 57.086C115.037 57.9344 114.879 58.7847 114.513 59.5572C114.14 60.3302 113.547 60.9827 112.805 61.4373C112.063 61.8919 111.203 62.1296 110.327 62.1223C105.219 62.0474 104.674 58.2168 105.7 55.2231C106.029 54.4125 106.594 53.7136 107.326 53.2129C108.057 52.7123 108.924 52.4318 109.817 52.4063C110.68 52.4023 111.529 52.611 112.287 53.0131C113.045 53.4151 113.686 53.9975 114.151 54.706Z" fill="#151B31"/>
        <path d="M48.5852 58.1482C47.2808 54.2132 49.5414 49.9887 53.5389 48.8908L78.5465 42.0226C82.3062 40.99 86.2083 43.121 87.3719 46.8423L88.5059 50.4687C89.6845 54.2382 87.6239 58.2568 83.8749 59.4995L59.3533 67.6281C55.5588 68.886 51.463 66.8296 50.2051 63.035L48.5852 58.1482Z" fill="#F1F78E" fill-opacity="0.7"/>
        <path fill-rule="evenodd" clip-rule="evenodd" d="M79.0257 43.7676L54.0182 50.6358C51.02 51.4592 49.3246 54.6276 50.3029 57.5788L51.9228 62.4656C52.8662 65.3115 55.938 66.8538 58.7839 65.9105L83.3055 57.7819C86.1173 56.8498 87.6628 53.8359 86.7787 51.0087L85.6448 47.3823C84.7721 44.5914 81.8456 42.9931 79.0257 43.7676ZM53.5389 48.8908C49.5414 49.9887 47.2808 54.2132 48.5852 58.1482L50.2051 63.035C51.463 66.8296 55.5588 68.886 59.3533 67.6281L83.8749 59.4995C87.6239 58.2568 89.6845 54.2382 88.5059 50.4687L87.3719 46.8423C86.2083 43.121 82.3062 40.99 78.5465 42.0226L53.5389 48.8908Z" fill="#151B31"/>
        <path d="M49.2516 59.1714L34.3048 61.3034C30.7377 61.8123 28.4237 65.3324 29.371 68.8089V68.8089" stroke="#151B31" stroke-width="2.26198"/>
    </g>
    <defs>
        <clipPath id="clip0_2532_45862">
            <rect width="128" height="128" fill="white"/>
        </clipPath>
    </defs>
</svg>
