<svg width="20" height="20" viewBox="0 0 20 20" fill="none" xmlns="http://www.w3.org/2000/svg">
    <path fill-rule="evenodd" clip-rule="evenodd" d="M10.625 1.25C9.58947 1.25 8.75 2.08947 8.75 3.125C8.75 4.16053 9.58947 5 10.625 5C11.6605 5 12.5 4.16053 12.5 3.125C12.5 2.08947 11.6605 1.25 10.625 1.25ZM10.625 8.125C9.58947 8.125 8.75 8.96447 8.75 10C8.75 11.0355 9.58947 11.875 10.625 11.875C11.6605 11.875 12.5 11.0355 12.5 10C12.5 8.96447 11.6605 8.125 10.625 8.125ZM8.75 16.875C8.75 15.8395 9.58947 15 10.625 15C11.6605 15 12.5 15.8395 12.5 16.875C12.5 17.9105 11.6605 18.75 10.625 18.75C9.58947 18.75 8.75 17.9105 8.75 16.875Z" fill="#808080"/>
</svg>
