<svg width="100" height="100" viewBox="0 0 100 100" fill="none" xmlns="http://www.w3.org/2000/svg">
    <g clip-path="url(#clip0_2532_43670)">
        <ellipse cx="31.6941" cy="87.4413" rx="25.6462" ry="11.4408" transform="rotate(9.8419 31.6941 87.4413)" fill="#151B31"/>
        <path d="M51.54 30.5668C51.591 26.5706 51.6137 22.0356 51.6647 18.0394C51.7759 15.6459 51.6393 13.2481 51.2568 10.8786C50.9057 9.08452 50.2262 7.27469 48.8329 5.98795C48.4737 5.60851 47.9835 5.35536 47.4454 5.27136C46.3806 5.18243 45.5991 6.14488 45.112 7.01317C42.4559 11.7208 41.6403 17.1136 40.8588 22.3808" fill="#FEFDFB"/>
        <path d="M51.54 30.5668C51.591 26.5706 51.6137 22.0356 51.6647 18.0394C51.7759 15.6459 51.6393 13.2481 51.2568 10.8786C50.9057 9.08452 50.2262 7.27469 48.8329 5.98795C48.4737 5.60851 47.9835 5.35536 47.4454 5.27136C46.3806 5.18243 45.5991 6.14488 45.112 7.01317C42.4559 11.7208 41.6403 17.1136 40.8588 22.3808" stroke="#151B31" stroke-width="2" stroke-miterlimit="10"/>
        <path d="M17.0997 55.6483C16.3194 42.7241 14.9851 29.5482 15.8108 19.67C16.0827 16.4528 16.4905 12.4351 17.0947 9.25821C18.1016 4.13285 23.2471 3.4985 24.8632 9.97317C26.1248 14.7112 27.0352 19.5358 27.5869 24.4077L27.9293 28.8131C27.8487 27.2675 27.7329 25.8175 27.5869 24.4077L27.2244 19.811C35.9243 16.2867 46.628 20.7022 51.5922 28.6772C54.0592 32.6446 55.348 37.347 58.389 40.8915C63.0108 46.2837 70.5578 47.8495 77.4804 49.4505C80.4106 50.1201 83.381 50.8703 85.9739 52.4009C88.5667 53.9314 90.7769 56.3582 91.3609 59.3136C91.945 62.269 89.8505 67.4044 83.1595 67.3137C77.4552 67.2382 71.756 66.9109 66.0416 66.7096C61.6564 66.5585 56.8735 66.5233 53.3946 69.1967C50.837 71.1603 49.4273 74.3271 48.9339 77.5091C48.4405 80.691 48.7526 83.9384 49.0698 87.1456C47.3832 96.49 36.0854 97.2755 26.2376 93.5346C22.3964 92.1247 18.8729 89.9668 15.8713 87.1859C18.0664 78.5412 17.8197 67.1828 17.0997 55.6483Z" fill="#FEFDFB" stroke="#151B31" stroke-width="2" stroke-miterlimit="10"/>
        <path d="M60.0492 38.2326C59.7224 37.4291 58.8061 37.0428 58.0027 37.3696C57.1993 37.6964 56.8129 38.6126 57.1397 39.4161L57.9586 41.4292C58.2854 42.2327 59.2017 42.6191 60.0051 42.2922C60.8085 41.9654 61.1949 41.0492 60.8681 40.2457L60.0492 38.2326Z" fill="#151B31"/>
        <path d="M46.5666 42.4834C46.2801 41.6016 46.7627 40.6545 47.6445 40.368C48.5263 40.0815 49.4734 40.5641 49.7599 41.4459L50.4661 43.6193C50.7526 44.5011 50.27 45.4482 49.3881 45.7347C48.5063 46.0212 47.5592 45.5386 47.2727 44.6568L46.5666 42.4834Z" fill="#151B31"/>
        <path fill-rule="evenodd" clip-rule="evenodd" d="M40.9952 68.4921L42.6242 67.8394C43.6504 67.4282 45.4464 67.0008 47.4086 67.1003C49.3613 67.1992 51.4258 67.8153 53.0846 69.4278L54.1428 68.3392C52.1503 66.4024 49.6968 65.6961 47.4854 65.5841C46.0646 65.5121 44.7219 65.6834 43.6231 65.9443L44.9484 62.5592L43.5347 62.0058L40.9952 68.4921Z" fill="#151B31"/>
        <path d="M89.1793 42.7381C89.5515 43.2949 89.7728 43.9346 89.8223 44.5974C89.8719 45.2603 89.7482 45.9246 89.4628 46.5281C89.171 47.132 88.7079 47.6417 88.1282 47.9969C87.5485 48.3521 86.8765 48.5378 86.1918 48.5321C82.2013 48.4736 81.7761 45.4809 82.5775 43.1421C82.8341 42.5088 83.2756 41.9628 83.8473 41.5716C84.419 41.1805 85.0958 40.9614 85.7939 40.9415C86.4678 40.9383 87.1315 41.1014 87.7234 41.4155C88.3153 41.7296 88.8161 42.1846 89.1793 42.7381Z" fill="#151B31"/>
        <path fill-rule="evenodd" clip-rule="evenodd" d="M44.9219 36.3281C39.3386 36.6383 24.3137 43.6449 17.3425 47.1868C15.7466 45.0708 12.1307 42.3807 5.07788 41.0156C4.97916 43.2862 6.28755 47.368 11.4204 49.4818C2.76658 52.0349 0.64232 58.3461 0.78814 61.7188C11.7181 59.5914 16.5447 55.0978 18.1512 52.1243C21.064 52.6071 25.6689 53.0697 27.3438 51.9531C28.391 51.255 32.0118 51.3367 36.22 51.4317C41.4298 51.5492 47.54 51.6871 50.7812 50.3906C55.4688 48.5156 61.0677 45.7031 63.2812 44.5312C68.2812 37.3438 62.7604 33.4635 59.375 32.4219C56.901 33.5938 50.5469 36.0156 44.9219 36.3281Z" fill="#151B31"/>
    </g>
    <defs>
        <clipPath id="clip0_2532_43670">
            <rect width="100" height="100" fill="white"/>
        </clipPath>
    </defs>
</svg>
