<svg width="100" height="100" viewBox="0 0 100 100" fill="none" xmlns="http://www.w3.org/2000/svg">
    <g clip-path="url(#clip0_2551_56954)">
        <g clip-path="url(#clip1_2551_56954)">
            <ellipse cx="31.6941" cy="87.4374" rx="25.6462" ry="11.4408" transform="rotate(9.8419 31.6941 87.4374)" fill="#151B31"/>
        </g>
        <path d="M51.54 30.5668C51.591 26.5706 51.6137 22.0356 51.6647 18.0394C51.7759 15.6459 51.6393 13.2481 51.2568 10.8786C50.9057 9.08452 50.2262 7.27469 48.8329 5.98795C48.4737 5.60851 47.9835 5.35536 47.4454 5.27136C46.3806 5.18243 45.5991 6.14488 45.112 7.01317C42.4559 11.7208 41.6403 17.1136 40.8588 22.3808" fill="#FEFDFB"/>
        <path d="M51.54 30.5668C51.591 26.5706 51.6137 22.0356 51.6647 18.0394C51.7759 15.6459 51.6393 13.2481 51.2568 10.8786C50.9057 9.08452 50.2262 7.27469 48.8329 5.98795C48.4737 5.60851 47.9835 5.35536 47.4454 5.27136C46.3806 5.18243 45.5991 6.14488 45.112 7.01317C42.4559 11.7208 41.6403 17.1136 40.8588 22.3808" stroke="#151B31" stroke-width="2" stroke-miterlimit="10"/>
        <path d="M17.0997 55.6483C16.3194 42.7241 14.9851 29.5482 15.8108 19.67C16.0827 16.4528 16.4905 12.4351 17.0947 9.25821C18.1016 4.13285 23.2471 3.4985 24.8632 9.97317C26.1248 14.7112 27.0352 19.5358 27.5869 24.4077L27.9293 28.8131C27.8487 27.2675 27.7329 25.8175 27.5869 24.4077L27.2244 19.811C35.9243 16.2867 46.628 20.7022 51.5922 28.6772C54.0592 32.6446 55.348 37.347 58.389 40.8915C63.0108 46.2837 70.5578 47.8495 77.4804 49.4505C80.4106 50.1201 83.381 50.8703 85.9739 52.4009C88.5667 53.9314 90.7769 56.3582 91.3609 59.3136C91.945 62.269 89.8505 67.4044 83.1595 67.3137C77.4552 67.2382 71.756 66.9109 66.0416 66.7096C61.6564 66.5585 56.8735 66.5233 53.3946 69.1967C50.837 71.1603 49.4273 74.3271 48.9339 77.5091C48.4405 80.691 48.7526 83.9384 49.0698 87.1456C47.3832 96.49 36.0854 97.2755 26.2376 93.5346C22.3964 92.1247 18.8729 89.9668 15.8713 87.1859C18.0664 78.5412 17.8197 67.1828 17.0997 55.6483Z" fill="#FEFDFB" stroke="#151B31" stroke-width="2" stroke-miterlimit="10"/>
        <path d="M60.0502 38.2326C59.7234 37.4291 58.8071 37.0428 58.0037 37.3696C57.2002 37.6964 56.8139 38.6126 57.1407 39.4161L57.9596 41.4292C58.2864 42.2327 59.2026 42.6191 60.0061 42.2922C60.8095 41.9654 61.1959 41.0492 60.8691 40.2457L60.0502 38.2326Z" fill="#151B31"/>
        <path d="M46.5666 42.4834C46.2801 41.6016 46.7627 40.6545 47.6445 40.368C48.5263 40.0815 49.4734 40.5641 49.7599 41.4459L50.4661 43.6193C50.7526 44.5011 50.27 45.4482 49.3881 45.7347C48.5063 46.0212 47.5592 45.5386 47.2727 44.6568L46.5666 42.4834Z" fill="#151B31"/>
        <path fill-rule="evenodd" clip-rule="evenodd" d="M45.1538 59.7455L45.6954 61.4147C46.0367 62.4662 46.8584 64.1194 48.1912 65.5629C49.5176 66.9995 51.3126 68.1908 53.6134 68.4325L53.4547 69.9423C50.6913 69.652 48.5778 68.2196 47.0758 66.5928C46.1107 65.5475 45.3826 64.4064 44.8794 63.3954L43.1279 66.5808L41.7975 65.8494L45.1538 59.7455Z" fill="#151B31"/>
        <path d="M89.1793 42.7381C89.5515 43.2949 89.7728 43.9346 89.8223 44.5974C89.8719 45.2603 89.7482 45.9246 89.4628 46.5281C89.171 47.132 88.7079 47.6417 88.1282 47.9969C87.5485 48.3521 86.8765 48.5378 86.1918 48.5321C82.2013 48.4736 81.7761 45.4809 82.5775 43.1421C82.8341 42.5088 83.2756 41.9628 83.8473 41.5716C84.419 41.1805 85.0958 40.9614 85.7939 40.9415C86.4678 40.9383 87.1315 41.1014 87.7234 41.4155C88.3153 41.7296 88.8161 42.1846 89.1793 42.7381Z" fill="#151B31"/>
        <circle cx="48.5" cy="43.5" r="9.5" fill="#F1F78E" fill-opacity="0.6" stroke="#151B31" stroke-width="2"/>
        <path d="M49 53C48.0003 79.4214 31.7143 95.0275 18 71.3568" stroke="#151B31" stroke-width="2"/>
    </g>
    <defs>
        <clipPath id="clip0_2551_56954">
            <rect width="100" height="100" fill="white"/>
        </clipPath>
        <clipPath id="clip1_2551_56954">
            <rect width="100" height="100" fill="white"/>
        </clipPath>
    </defs>
</svg>
