<svg width="16" height="16" viewBox="0 0 16 16" fill="none" xmlns="http://www.w3.org/2000/svg">
    <path d="M4.9375 11.0625L11.0625 4.9375" stroke="#808080" stroke-width="1.5" stroke-linecap="round" stroke-linejoin="round"/>
    <path d="M5.51216 8.01214C4.77004 7.96938 4.04494 8.24525 3.51891 8.77047L2.20641 10.083C1.54326 10.7461 1.28428 11.7127 1.52701 12.6185C1.76973 13.5244 2.4773 14.232 3.38317 14.4747C4.28904 14.7174 5.2556 14.4584 5.91874 13.7953L7.23124 12.4828C7.75647 11.9568 8.03233 11.2317 7.98958 10.4896" stroke="#808080" stroke-width="1.5" stroke-linecap="round" stroke-linejoin="round"/>
    <path d="M10.4882 7.98567C11.2303 8.02835 11.9554 7.7525 12.4815 7.22734L13.794 5.91484C14.4571 5.25169 14.7161 4.28514 14.4734 3.37927C14.2306 2.47339 13.5231 1.76583 12.6172 1.5231C11.7113 1.28037 10.7448 1.53936 10.0816 2.2025L8.76914 3.515C8.24517 4.04166 7.97042 4.76661 8.01372 5.50825" stroke="#808080" stroke-width="1.5" stroke-linecap="round" stroke-linejoin="round"/>
</svg>
