<svg width="20" height="20" viewBox="0 0 20 20" fill="none" xmlns="http://www.w3.org/2000/svg">
    <rect width="20" height="20" rx="4" fill="#151B31"/>
    <g clip-path="url(#clip0_2532_44404)">
        <path d="M8 11C8 11 8.75 12 10 12C11.25 12 12 11 12 11M11.5 8.5H11.505M8 8.5H9M15 10C15 12.7614 12.7614 15 10 15C7.23858 15 5 12.7614 5 10C5 7.23858 7.23858 5 10 5C12.7614 5 15 7.23858 15 10ZM11.75 8.5C11.75 8.63807 11.6381 8.75 11.5 8.75C11.3619 8.75 11.25 8.63807 11.25 8.5C11.25 8.36193 11.3619 8.25 11.5 8.25C11.6381 8.25 11.75 8.36193 11.75 8.5Z" stroke="white" stroke-width="1.2" stroke-linecap="round" stroke-linejoin="round"/>
    </g>
    <defs>
        <clipPath id="clip0_2532_44404">
            <rect width="12" height="12" fill="white" transform="translate(4 4)"/>
        </clipPath>
    </defs>
</svg>
