<svg width="18" height="18" viewBox="0 0 18 18" fill="none" xmlns="http://www.w3.org/2000/svg">
<g clip-path="url(#clip0_2532_44398)">
<path d="M10.379 1.81686C9.94492 0.48102 8.05508 0.481034 7.62098 1.81686L6.4343 5.46862L2.59456 5.46877C1.18997 5.46882 0.605983 7.26617 1.74229 8.09181L4.84861 10.3489L3.66221 14.0007C3.22821 15.3366 4.75714 16.4474 5.8935 15.6218L9 13.365L12.1065 15.6218C13.2429 16.4474 14.7718 15.3366 14.3378 14.0007L13.1514 10.3489L16.2577 8.09181C17.394 7.26617 16.81 5.46882 15.4054 5.46877L11.5657 5.46862L10.379 1.81686ZM8.97061 13.3437L8.9708 13.3438L8.97061 13.3437Z" stroke="#808080" stroke-width="1.5"/>
</g>
<defs>
<clipPath id="clip0_2532_44398">
<rect width="18" height="18" fill="white"/>
</clipPath>
</defs>
</svg>
