<svg width="18" height="18" viewBox="0 0 18 18" fill="none" xmlns="http://www.w3.org/2000/svg">
    <g clip-path="url(#clip0_2544_52607)">
        <path d="M8.33427 2.04865C8.54383 1.40377 9.45617 1.40376 9.66573 2.04865L10.8636 5.73496C10.9574 6.02335 11.2261 6.21861 11.5293 6.21862L15.4054 6.21877C16.0835 6.21879 16.3654 7.08648 15.8169 7.48506L12.6811 9.76347C12.4358 9.94172 12.3332 10.2577 12.4269 10.5461L13.6245 14.2325C13.834 14.8774 13.0959 15.4136 12.5473 15.0151L9.41143 12.7369C9.1661 12.5587 8.8339 12.5587 8.58857 12.7369L5.45269 15.0151C4.90409 15.4136 4.166 14.8774 4.37551 14.2325L5.57314 10.5461C5.66683 10.2577 5.56418 9.94172 5.31886 9.76347L2.18315 7.48506C1.63459 7.08648 1.91651 6.21879 2.59459 6.21877L6.47065 6.21862C6.77389 6.21861 7.04264 6.02335 7.13636 5.73496L8.33427 2.04865Z" fill="#151B31" stroke="#151B31" stroke-width="1.5"/>
    </g>
    <defs>
        <clipPath id="clip0_2544_52607">
            <rect width="18" height="18" fill="white"/>
        </clipPath>
    </defs>
</svg>
