<svg width="16" height="20" viewBox="0 0 16 20" fill="none" xmlns="http://www.w3.org/2000/svg">
    <path d="M7.76369 6.05103C7.77382 5.25725 7.77833 4.35646 7.78845 3.56267C7.81055 3.08725 7.78342 2.61098 7.70745 2.14032C7.6377 1.78395 7.50272 1.42446 7.22598 1.16887C7.15462 1.0935 7.05725 1.04322 6.95036 1.02653C6.73887 1.00887 6.58363 1.20004 6.48689 1.37251C5.95929 2.30759 5.79729 3.37878 5.64205 4.42503" fill="#FEFDFB"/>
    <path d="M7.76369 6.05103C7.77382 5.25725 7.77833 4.35646 7.78845 3.56267C7.81055 3.08725 7.78342 2.61098 7.70745 2.14032C7.6377 1.78395 7.50272 1.42446 7.22598 1.16887C7.15462 1.0935 7.05725 1.04322 6.95036 1.02653C6.73887 1.00887 6.58363 1.20004 6.48689 1.37251C5.95929 2.30759 5.79729 3.37878 5.64205 4.42503" stroke="#FEFDFB" stroke-width="0.478049" stroke-miterlimit="10"/>
    <path d="M0.924147 11.033C0.769139 8.46587 0.504121 5.8487 0.668128 3.88658C0.722131 3.24754 0.80314 2.44949 0.923146 1.81845C1.12316 0.800385 2.14521 0.674381 2.46623 1.96046C2.71683 2.90158 2.89766 3.85991 3.00724 4.82764L3.07525 5.7027C3.05925 5.39568 3.03624 5.10766 3.00724 4.82764L2.93524 3.91458C4.66332 3.21454 6.78943 4.09159 7.77548 5.67569C8.2655 6.46374 8.52151 7.3978 9.12554 8.10185C10.0436 9.17291 11.5427 9.48393 12.9177 9.80195C13.4998 9.93496 14.0898 10.084 14.6048 10.388C15.1198 10.692 15.5588 11.174 15.6749 11.7611C15.7909 12.3481 15.3748 13.3682 14.0458 13.3502C12.9127 13.3352 11.7807 13.2702 10.6456 13.2302C9.77457 13.2002 8.82452 13.1932 8.13349 13.7242C7.62547 14.1142 7.34545 14.7433 7.24745 15.3753C7.14944 16.0073 7.21145 16.6524 7.27445 17.2894C6.93944 19.1455 4.69533 19.3015 2.73924 18.5585C1.97623 18.2784 1.27636 17.8498 0.680141 17.2974C1.11616 15.5803 1.06715 13.3242 0.924147 11.033Z" fill="#FEFDFB" stroke="#FEFDFB" stroke-width="0.478049" stroke-miterlimit="10"/>
    <path d="M15.426 8.58541C15.4809 8.66756 15.5136 8.76195 15.5209 8.85975C15.5282 8.95755 15.5099 9.05556 15.4678 9.14461C15.4248 9.23372 15.3565 9.30893 15.2709 9.36133C15.1854 9.41374 15.0862 9.44114 14.9852 9.44029C14.3964 9.43167 14.3337 8.99011 14.4519 8.64502C14.4898 8.55157 14.5549 8.47101 14.6393 8.4133C14.7236 8.35559 14.8235 8.32326 14.9265 8.32032C15.0259 8.31985 15.1239 8.34391 15.2112 8.39026C15.2985 8.43661 15.3724 8.50374 15.426 8.58541V8.58541Z" fill="#FEFDFB" stroke="white" stroke-width="0.478049" stroke-miterlimit="10"/>
</svg>
