<svg width="235" height="100" viewBox="0 0 235 100" fill="none" xmlns="http://www.w3.org/2000/svg">
    <path d="M118.541 30.5648C118.591 26.5686 118.614 22.0336 118.665 18.0374C118.776 15.644 118.64 13.2462 118.257 10.8767C117.906 9.08257 117.227 7.27274 115.833 5.986C115.474 5.60656 114.984 5.35341 114.446 5.2694C113.381 5.18048 112.6 6.14293 112.113 7.01122C109.456 11.7188 108.641 17.1116 107.859 22.3789" fill="#FEFDFB"/>
    <path d="M118.541 30.5648C118.591 26.5686 118.614 22.0336 118.665 18.0374C118.776 15.644 118.64 13.2462 118.257 10.8767C117.906 9.08257 117.227 7.27274 115.833 5.986C115.474 5.60656 114.984 5.35341 114.446 5.2694C113.381 5.18048 112.6 6.14293 112.113 7.01122C109.456 11.7188 108.641 17.1116 107.859 22.3789" stroke="black" stroke-width="2" stroke-miterlimit="10"/>
    <path d="M84.1002 55.6463C83.3198 42.7221 81.9856 29.5462 82.8113 19.6681C83.0832 16.4509 83.491 12.4332 84.0952 9.25626C85.1021 4.1309 90.2476 3.49654 91.8637 9.97121C93.1253 14.7092 94.0357 19.5338 94.5874 24.4058L94.9298 28.8112C94.8492 27.2655 94.7334 25.8155 94.5874 24.4058L94.2249 19.8091C102.925 16.2848 113.628 20.7002 118.593 28.6752C121.06 32.6426 122.349 37.3451 125.389 40.8895C130.011 46.2817 137.558 47.8475 144.481 49.4486C147.411 50.1182 150.382 50.8683 152.974 52.3989C155.567 53.9295 157.777 56.3562 158.361 59.3116C158.945 62.267 156.851 67.4024 150.16 67.3118C144.456 67.2363 138.756 66.909 133.042 66.7076C128.657 66.5566 123.874 66.5213 120.395 69.1948C117.837 71.1583 116.428 74.3252 115.934 77.5071C115.441 80.6891 115.753 83.9365 116.07 87.1436C114.384 96.4881 103.086 97.2735 93.2381 93.5327C89.3968 92.1228 85.8734 89.9649 82.8718 87.1839C85.0669 78.5393 84.8202 67.1809 84.1002 55.6463Z" fill="#FEFDFB" stroke="black" stroke-width="2" stroke-miterlimit="10"/>
    <path d="M129.567 39.6149C129.244 39.0694 128.54 38.8889 127.994 39.2118L125.702 40.5682C125.157 40.891 124.977 41.5949 125.299 42.1404C125.622 42.6859 126.326 42.8664 126.872 42.5436L129.163 41.1872C129.709 40.8643 129.889 40.1604 129.567 39.6149Z" fill="black"/>
    <path d="M107.816 46.4108C107.74 45.8184 108.157 45.2759 108.75 45.1991L116.617 44.179C117.21 44.1022 117.752 44.5202 117.829 45.1125C117.906 45.7049 117.488 46.2473 116.895 46.3241L109.028 47.3442C108.436 47.421 107.893 47.0031 107.816 46.4108Z" fill="black"/>
    <path fill-rule="evenodd" clip-rule="evenodd" d="M107.996 68.4901L109.625 67.8374C110.651 67.4262 112.447 66.9989 114.409 67.0983C116.362 67.1973 118.426 67.8134 120.085 69.4258L121.143 68.3372C119.151 66.4004 116.697 65.6942 114.486 65.5821C113.065 65.5101 111.722 65.6815 110.624 65.9423L111.949 62.5573L110.535 62.0038L107.996 68.4901Z" fill="black"/>
    <path d="M156.18 42.7371C156.552 43.2939 156.774 43.9336 156.823 44.5965C156.873 45.2593 156.749 45.9236 156.464 46.5271C156.172 47.131 155.709 47.6408 155.129 47.9959C154.549 48.3511 153.877 48.5368 153.193 48.5311C149.202 48.4726 148.777 45.48 149.578 43.1411C149.835 42.5078 150.277 41.9618 150.848 41.5707C151.42 41.1795 152.097 40.9604 152.795 40.9405C153.469 40.9373 154.133 41.1004 154.724 41.4145C155.316 41.7286 155.817 42.1836 156.18 42.7371Z" fill="black"/>
    <path fill-rule="evenodd" clip-rule="evenodd" d="M197.074 40.8613H181.324L172.324 47.6113V40.8613H167.824C166.582 40.8613 165.574 39.854 165.574 38.6113V16.1113C165.574 14.8687 166.582 13.8613 167.824 13.8613H197.074C198.317 13.8613 199.324 14.8687 199.324 16.1113V38.6113C199.324 39.854 198.317 40.8613 197.074 40.8613Z" fill="#FFC01E" stroke="black" stroke-width="1.8" stroke-linecap="round" stroke-linejoin="round"/>
    <path d="M172 32V31.1781L175.268 26.9406V26.8845H172.106V25.8421H176.733V26.7161L173.591 30.9015V30.9576H176.843V32H172Z" fill="black"/>
    <path d="M178.256 32V30.9885L182.279 25.773V25.7039H178.387V24.4211H184.082V25.4967L180.214 30.648V30.7171H184.217V32H178.256Z" fill="black"/>
    <path d="M185.921 32V30.7988L190.698 24.6055V24.5234H186.076V23H192.839V24.2773L188.246 30.3945V30.4766H193V32H185.921Z" fill="black"/>
</svg>
