<svg width="235" height="100" viewBox="0 0 235 100" fill="none" xmlns="http://www.w3.org/2000/svg">
    <path d="M118.541 30.5668C118.591 26.5706 118.614 22.0356 118.665 18.0394C118.776 15.6459 118.64 13.2481 118.257 10.8786C117.906 9.08452 117.227 7.27469 115.833 5.98795C115.474 5.60851 114.984 5.35536 114.446 5.27136C113.381 5.18243 112.6 6.14488 112.113 7.01317C109.456 11.7208 108.641 17.1136 107.859 22.3808" fill="#FEFDFB"/>
    <path d="M118.541 30.5668C118.591 26.5706 118.614 22.0356 118.665 18.0394C118.776 15.6459 118.64 13.2481 118.257 10.8786C117.906 9.08452 117.227 7.27469 115.833 5.98795C115.474 5.60851 114.984 5.35536 114.446 5.27136C113.381 5.18243 112.6 6.14488 112.113 7.01317C109.456 11.7208 108.641 17.1136 107.859 22.3808" stroke="#011D31" stroke-width="2" stroke-miterlimit="10"/>
    <path d="M84.1002 55.6483C83.3198 42.7241 81.9856 29.5482 82.8113 19.67C83.0832 16.4528 83.491 12.4351 84.0952 9.25821C85.1021 4.13285 90.2476 3.4985 91.8637 9.97317C93.1253 14.7112 94.0357 19.5358 94.5874 24.4077L94.9298 28.8131C94.8492 27.2675 94.7334 25.8175 94.5874 24.4077L94.2249 19.811C102.925 16.2867 113.628 20.7022 118.593 28.6772C121.06 32.6446 122.349 37.347 125.389 40.8915C130.011 46.2837 137.558 47.8495 144.481 49.4505C147.411 50.1201 150.382 50.8703 152.974 52.4009C155.567 53.9314 157.777 56.3582 158.361 59.3136C158.945 62.269 156.851 67.4044 150.16 67.3137C144.456 67.2382 138.756 66.9109 133.042 66.7096C128.657 66.5585 123.874 66.5233 120.395 69.1967C117.837 71.1603 116.428 74.3271 115.934 77.5091C115.441 80.691 115.753 83.9384 116.07 87.1456C114.384 96.49 103.086 97.2755 93.2381 93.5346C89.3968 92.1247 85.8734 89.9668 82.8718 87.1859C85.0669 78.5412 84.8202 67.1828 84.1002 55.6483Z" fill="#FEFDFB" stroke="#011D31" stroke-width="2" stroke-miterlimit="10"/>
    <path d="M129.567 39.6159C129.244 39.0704 128.54 38.8899 127.994 39.2127L125.702 40.5691C125.157 40.892 124.977 41.5959 125.299 42.1414C125.622 42.6869 126.326 42.8674 126.872 42.5445L129.163 41.1881C129.709 40.8653 129.889 40.1613 129.567 39.6159Z" fill="#011D31"/>
    <path d="M107.816 46.4117C107.74 45.8194 108.157 45.2769 108.75 45.2001L116.617 44.18C117.21 44.1032 117.752 44.5211 117.829 45.1135C117.906 45.7058 117.488 46.2483 116.895 46.3251L109.028 47.3452C108.436 47.422 107.893 47.0041 107.816 46.4117Z" fill="#011D31"/>
    <path fill-rule="evenodd" clip-rule="evenodd" d="M107.996 68.4921L109.625 67.8394C110.651 67.4282 112.447 67.0008 114.409 67.1003C116.362 67.1992 118.426 67.8153 120.085 69.4278L121.143 68.3392C119.151 66.4024 116.697 65.6961 114.486 65.5841C113.065 65.5121 111.722 65.6834 110.624 65.9443L111.949 62.5592L110.535 62.0058L107.996 68.4921Z" fill="#011D31"/>
    <path d="M156.18 42.7381C156.552 43.2949 156.774 43.9346 156.823 44.5974C156.873 45.2603 156.749 45.9246 156.464 46.5281C156.172 47.132 155.709 47.6417 155.129 47.9969C154.549 48.3521 153.877 48.5378 153.193 48.5321C149.202 48.4736 148.777 45.4809 149.578 43.1421C149.835 42.5088 150.277 41.9628 150.848 41.5716C151.42 41.1805 152.097 40.9614 152.795 40.9415C153.469 40.9383 154.133 41.1014 154.724 41.4155C155.316 41.7296 155.817 42.1846 156.18 42.7381Z" fill="#011D31"/>
</svg>
