<svg width="235" height="100" viewBox="0 0 235 100" fill="none" xmlns="http://www.w3.org/2000/svg">
    <path d="M93.9892 30.3012C94.0402 26.305 94.0629 21.77 94.1139 17.7737C94.2251 15.3803 94.0886 12.9825 93.7061 10.613C93.3549 8.8189 92.6754 7.00907 91.2822 5.72233C90.9229 5.34288 90.4327 5.08974 89.8946 5.00573C88.8299 4.91681 88.0483 5.87926 87.5613 6.74755C84.9051 11.4551 84.0896 16.8479 83.308 22.1152" fill="#FEFDFB"/>
    <path d="M93.9892 30.3012C94.0402 26.305 94.0629 21.77 94.1139 17.7737C94.2251 15.3803 94.0886 12.9825 93.7061 10.613C93.3549 8.8189 92.6754 7.00907 91.2822 5.72233C90.9229 5.34288 90.4327 5.08974 89.8946 5.00573C88.8299 4.91681 88.0483 5.87926 87.5613 6.74755C84.9051 11.4551 84.0896 16.8479 83.308 22.1152" stroke="black" stroke-width="1.8" stroke-miterlimit="10"/>
    <path d="M59.5489 55.3826C58.7686 42.4585 57.4344 29.2826 58.26 19.4044C58.5319 16.1872 58.9397 12.1695 59.5439 8.99259C60.5508 3.86723 65.6963 3.23287 67.3124 9.70754C68.5741 14.4455 69.4844 19.2702 70.0361 24.1421L70.3785 28.5475C70.2979 27.0018 70.1821 25.5518 70.0361 24.1421L69.6736 19.5454C78.3735 16.0211 89.0772 20.4365 94.0414 28.4116C96.5084 32.3789 97.7973 37.0814 100.838 40.6258C105.46 46.018 113.007 47.5838 119.93 49.1849C122.86 49.8545 125.83 50.6047 128.423 52.1352C131.016 53.6658 133.226 56.0926 133.81 59.0479C134.394 62.0033 132.3 67.1387 125.609 67.0481C119.904 66.9726 114.205 66.6453 108.491 66.4439C104.106 66.2929 99.3227 66.2577 95.8438 68.9311C93.2862 70.8946 91.8765 74.0615 91.3831 77.2434C90.8897 80.4254 91.2018 83.6728 91.519 86.8799C89.8324 96.2244 78.5347 97.0098 68.6869 93.269C64.8456 91.8591 61.3221 89.7012 58.3205 86.9202C60.5156 78.2756 60.2689 66.9172 59.5489 55.3826Z" fill="#FEFDFB" stroke="black" stroke-width="1.8" stroke-miterlimit="10"/>
    <path d="M102.499 37.967C102.173 37.1635 101.256 36.7771 100.453 37.104C99.6495 37.4308 99.2631 38.347 99.5899 39.1505L100.409 41.1636C100.736 41.967 101.652 42.3534 102.455 42.0266C103.259 41.6998 103.645 40.7835 103.318 39.9801L102.499 37.967Z" fill="black"/>
    <path d="M89.0168 42.2187C88.7303 41.3369 89.2129 40.3898 90.0947 40.1033C90.9765 39.8168 91.9236 40.2994 92.2101 41.1812L92.9163 43.3546C93.2028 44.2365 92.7202 45.1836 91.8383 45.4701C90.9565 45.7566 90.0094 45.274 89.7229 44.3921L89.0168 42.2187Z" fill="black"/>
    <path d="M131.629 42.4735C132.002 43.0302 132.223 43.67 132.273 44.3328C132.322 44.9956 132.198 45.6599 131.913 46.2634C131.621 46.8674 131.158 47.3771 130.578 47.7323C129.999 48.0874 129.327 48.2731 128.642 48.2674C124.651 48.2089 124.226 45.2163 125.028 42.8774C125.284 42.2441 125.726 41.6981 126.298 41.307C126.869 40.9158 127.546 40.6967 128.244 40.6768C128.918 40.6736 129.582 40.8367 130.174 41.1508C130.766 41.465 131.266 41.9199 131.629 42.4735V42.4735Z" fill="black"/>
    <path d="M95.3555 68.0957C95.3555 68.8871 94.9201 69.6881 94.0479 70.3276C93.1764 70.9668 91.9238 71.3926 90.4961 71.3926C89.0683 71.3926 87.8158 70.9668 86.9443 70.3276C86.0721 69.6881 85.6367 68.8871 85.6367 68.0957C85.6367 67.3043 86.0721 66.5034 86.9443 65.8638C87.8158 65.2246 89.0683 64.7988 90.4961 64.7988C91.9238 64.7988 93.1764 65.2246 94.0479 65.8638C94.9201 66.5034 95.3555 67.3043 95.3555 68.0957Z" stroke="black" stroke-width="2"/>
    <path fill-rule="evenodd" clip-rule="evenodd" d="M173.074 40.8613H157.324L148.324 47.6113V40.8613H143.824C142.582 40.8613 141.574 39.854 141.574 38.6113V16.1113C141.574 14.8687 142.582 13.8613 143.824 13.8613H173.074C174.317 13.8613 175.324 14.8687 175.324 16.1113V38.6113C175.324 39.854 174.317 40.8613 173.074 40.8613Z" fill="#FFC01E" stroke="black" stroke-width="1.8" stroke-linecap="round" stroke-linejoin="round"/>
    <path d="M153.949 22.8617C153.95 20.5734 155.667 18.6498 157.941 18.3914C160.215 18.133 162.32 19.6222 162.834 21.8521C163.348 24.082 162.107 26.3425 159.949 27.1052C159.05 27.4232 158.449 28.2738 158.449 29.2277V29.6117" stroke="black" stroke-width="1.8" stroke-linecap="round" stroke-linejoin="round"/>
    <path d="M158.449 34.1113C158.139 34.1113 157.887 34.3632 157.887 34.6738C157.887 34.9845 158.139 35.2363 158.449 35.2363C158.76 35.2363 159.012 34.9845 159.012 34.6738C159.012 34.3632 158.76 34.1113 158.449 34.1113V34.1113" stroke="black" stroke-width="1.8" stroke-linecap="round" stroke-linejoin="round"/>
</svg>
