<svg width="235" height="100" viewBox="0 0 235 100" fill="none" xmlns="http://www.w3.org/2000/svg">
    <path d="M118.541 30.5648C118.591 26.5686 118.614 22.0336 118.665 18.0374C118.776 15.644 118.64 13.2462 118.257 10.8767C117.906 9.08257 117.227 7.27274 115.833 5.986C115.474 5.60656 114.984 5.35341 114.446 5.2694C113.381 5.18048 112.6 6.14293 112.113 7.01122C109.456 11.7188 108.641 17.1116 107.859 22.3789" fill="#FEFDFB"/>
    <path d="M118.541 30.5648C118.591 26.5686 118.614 22.0336 118.665 18.0374C118.776 15.644 118.64 13.2462 118.257 10.8767C117.906 9.08257 117.227 7.27274 115.833 5.986C115.474 5.60656 114.984 5.35341 114.446 5.2694C113.381 5.18048 112.6 6.14293 112.113 7.01122C109.456 11.7188 108.641 17.1116 107.859 22.3789" stroke="black" stroke-width="2" stroke-miterlimit="10"/>
    <path d="M84.1002 55.6463C83.3198 42.7221 81.9856 29.5462 82.8113 19.6681C83.0832 16.4509 83.491 12.4332 84.0952 9.25626C85.1021 4.1309 90.2476 3.49654 91.8637 9.97121C93.1253 14.7092 94.0357 19.5338 94.5874 24.4058L94.9298 28.8112C94.8492 27.2655 94.7334 25.8155 94.5874 24.4058L94.2249 19.8091C102.925 16.2848 113.628 20.7002 118.593 28.6752C121.06 32.6426 122.349 37.345 125.389 40.8895C130.011 46.2817 137.558 47.8475 144.481 49.4485C147.411 50.1182 150.382 50.8683 152.974 52.3989C155.567 53.9295 157.777 56.3562 158.361 59.3116C158.945 62.267 156.851 67.4024 150.16 67.3118C144.456 67.2363 138.756 66.909 133.042 66.7076C128.657 66.5566 123.874 66.5213 120.395 69.1948C117.837 71.1583 116.428 74.3252 115.934 77.5071C115.441 80.6891 115.753 83.9365 116.07 87.1436C114.384 96.4881 103.086 97.2735 93.2381 93.5327C89.3968 92.1228 85.8734 89.9649 82.8718 87.1839C85.0669 78.5392 84.8202 67.1809 84.1002 55.6463Z" fill="#FEFDFB" stroke="black" stroke-width="2" stroke-miterlimit="10"/>
    <path d="M127.05 38.2306C126.723 37.4272 125.807 37.0408 125.004 37.3676C124.2 37.6944 123.814 38.6107 124.141 39.4141L124.96 41.4273C125.286 42.2307 126.203 42.6171 127.006 42.2903C127.81 41.9635 128.196 41.0472 127.869 40.2438L127.05 38.2306Z" fill="black"/>
    <path d="M113.567 42.4827C113.281 41.6008 113.763 40.6537 114.645 40.3672C115.527 40.0807 116.474 40.5633 116.76 41.4452L117.467 43.6186C117.753 44.5004 117.27 45.4475 116.389 45.734C115.507 46.0205 114.56 45.5379 114.273 44.6561L113.567 42.4827Z" fill="black"/>
    <path fill-rule="evenodd" clip-rule="evenodd" d="M112.154 59.7435L112.696 61.4127C113.037 62.4642 113.859 64.1174 115.191 65.5609C116.518 66.9975 118.313 68.1888 120.614 68.4305L120.455 69.9404C117.692 69.65 115.578 68.2177 114.076 66.5908C113.111 65.5456 112.383 64.4045 111.88 63.3934L110.128 66.5789L108.798 65.8474L112.154 59.7435Z" fill="black"/>
    <path d="M156.18 42.7371C156.552 43.2939 156.773 43.9336 156.823 44.5965C156.872 45.2593 156.749 45.9236 156.463 46.5271C156.172 47.131 155.708 47.6408 155.129 47.9959C154.549 48.3511 153.877 48.5368 153.192 48.5311C149.202 48.4726 148.777 45.48 149.578 43.1411C149.835 42.5078 150.276 41.9618 150.848 41.5707C151.419 41.1795 152.096 40.9604 152.794 40.9405C153.468 40.9373 154.132 41.1004 154.724 41.4145C155.316 41.7286 155.817 42.1836 156.18 42.7371Z" fill="black"/>
    <path fill-rule="evenodd" clip-rule="evenodd" d="M197.074 40.8613H181.324L172.324 47.6113V40.8613H167.824C166.582 40.8613 165.574 39.854 165.574 38.6113V16.1113C165.574 14.8687 166.582 13.8613 167.824 13.8613H197.074C198.317 13.8613 199.324 14.8687 199.324 16.1113V38.6113C199.324 39.854 198.317 40.8613 197.074 40.8613Z" fill="#FFC01E" stroke="black" stroke-width="1.8" stroke-linecap="round" stroke-linejoin="round"/>
    <path d="M182.408 36C181.058 36 179.86 35.8223 178.815 35.4669C177.774 35.1156 176.896 34.5972 176.182 33.9114C175.468 33.2298 174.926 32.3936 174.555 31.4026C174.185 30.4116 174 29.2805 174 28.0094C174 26.7717 174.187 25.6595 174.562 24.6727C174.936 23.6859 175.481 22.8454 176.195 22.1513C176.914 21.453 177.787 20.9199 178.815 20.5519C179.843 20.184 181.01 20 182.317 20C183.567 20 184.669 20.1882 185.623 20.5645C186.577 20.9408 187.378 21.4572 188.027 22.1137C188.68 22.7702 189.172 23.5228 189.503 24.3716C189.834 25.2204 190 26.1173 190 27.0623C190 27.723 189.956 28.369 189.869 29.0004C189.782 29.6276 189.621 30.1963 189.386 30.7064C189.155 31.2123 188.82 31.6179 188.38 31.9232C187.944 32.2242 187.378 32.381 186.681 32.3936C186.311 32.4061 185.952 32.3643 185.603 32.2681C185.255 32.172 184.958 32.0172 184.715 31.804C184.471 31.5866 184.323 31.3106 184.27 30.9761H184.192C184.087 31.2228 183.913 31.4528 183.669 31.666C183.425 31.8751 183.114 32.0423 182.735 32.1678C182.36 32.289 181.925 32.3392 181.428 32.3183C180.88 32.2974 180.385 32.1782 179.945 31.9608C179.505 31.7434 179.129 31.4423 178.815 31.0576C178.506 30.6729 178.268 30.2172 178.103 29.6903C177.937 29.1635 177.855 28.5781 177.855 27.9341C177.855 27.3153 177.948 26.7613 178.136 26.272C178.323 25.7786 178.578 25.3542 178.9 24.9988C179.227 24.6392 179.601 24.3549 180.024 24.1458C180.446 23.9368 180.893 23.805 181.363 23.7507C181.82 23.7005 182.241 23.7131 182.624 23.7883C183.007 23.8636 183.325 23.9786 183.578 24.1333C183.835 24.288 183.996 24.4573 184.061 24.6413H184.146V23.9388H185.753V29.7593C185.753 30.0896 185.843 30.3698 186.021 30.5998C186.204 30.8297 186.463 30.9447 186.799 30.9447C187.195 30.9447 187.504 30.8047 187.726 30.5245C187.953 30.2443 188.112 29.8137 188.203 29.2325C188.299 28.6512 188.347 27.907 188.347 26.9996C188.347 26.364 188.258 25.7661 188.079 25.2058C187.905 24.6413 187.646 24.1312 187.302 23.6754C186.962 23.2155 186.544 22.8203 186.047 22.49C185.551 22.1597 184.985 21.9046 184.349 21.7248C183.717 21.545 183.018 21.4551 182.252 21.4551C181.211 21.4551 180.285 21.6098 179.475 21.9192C178.665 22.2245 177.981 22.6656 177.423 23.2427C176.87 23.8197 176.45 24.5117 176.163 25.3187C175.879 26.1215 175.738 27.0226 175.738 28.022C175.738 29.0631 175.884 29.9872 176.176 30.7942C176.467 31.597 176.899 32.2744 177.469 32.8263C178.04 33.3783 178.745 33.7964 179.586 34.0808C180.427 34.3693 181.396 34.5135 182.493 34.5135C182.981 34.5135 183.46 34.4717 183.931 34.3881C184.401 34.3086 184.819 34.2166 185.185 34.1121C185.555 34.0118 185.832 33.9302 186.015 33.8675L186.472 35.2411C186.202 35.3623 185.843 35.4815 185.394 35.5986C184.95 35.7157 184.466 35.8118 183.944 35.8871C183.425 35.9624 182.914 36 182.408 36ZM181.807 30.7817C182.373 30.7817 182.829 30.6729 183.173 30.4555C183.521 30.2381 183.772 29.914 183.924 29.4833C184.081 29.0485 184.159 28.5049 184.159 27.8526C184.155 27.217 184.07 26.7111 183.904 26.3348C183.743 25.9543 183.491 25.6825 183.147 25.5194C182.807 25.3521 182.369 25.2685 181.833 25.2685C181.341 25.2685 180.921 25.3835 180.572 25.6135C180.228 25.8435 179.965 26.155 179.782 26.548C179.603 26.9411 179.512 27.378 179.508 27.8589C179.512 28.3648 179.586 28.8415 179.73 29.2889C179.878 29.7321 180.117 30.0917 180.448 30.3677C180.784 30.6437 181.237 30.7817 181.807 30.7817Z" fill="black"/>
</svg>
