<svg width="145" height="175" viewBox="0 0 145 175" fill="none" xmlns="http://www.w3.org/2000/svg">
    <path d="M55.3847 30.4655C32.1683 32.3432 -5.02688 43.0992 0.839829 61.4902C6.70653 79.8812 48.4557 70.2264 68.5969 63.1C49.6004 70.8873 13.4001 92.0813 20.5705 114.559C25.4587 129.883 42.366 125.739 57.5824 117.585C46.3166 126.653 36.5342 138.253 39.8365 148.605C45.0514 164.953 75.6747 152.625 90.3345 144.418C91.2167 157.431 98.7615 181.375 121.883 173.052C145.005 164.729 124.572 141.957 111.466 131.612C124.262 129.275 148.57 119.692 143.425 100.05C138.727 82.1148 113.801 88.4121 98.803 95.097C113.642 87.7076 139.327 71.1976 127.128 48.9642C115.442 27.6643 93.3376 39.5191 82.907 51.5393C93.4509 35.7757 105.384 7.8338 92.4955 1.87845C78.0363 -4.80247 59.6832 19.0547 55.3847 30.4655Z" fill="#B0D6B4"/>
</svg>
