<svg width="111" height="106" viewBox="0 0 111 106" fill="none" xmlns="http://www.w3.org/2000/svg">
    <path d="M2.05574 52.7854C9.96766 37.2792 28.5164 39.2302 36.8018 42.1439C35.9766 32.6553 31.2491 12.8317 45.2413 9.18785C58.1616 5.82311 65.3883 31.2911 65.3338 47.4745C66.3903 28.483 71.4755 -2.56514 85.2649 0.247753C100.025 3.2586 90.2194 42.8611 83.4718 62.286C89.2072 51.2719 102.343 33.5668 109.004 50.8583C115.664 68.1499 92.2061 73.5962 79.6445 74.1579C87.7954 78.2418 98.6999 116.706 79.4812 101.773C60.2625 86.84 81.7756 2.03528 68.4675 52.3523C55.1595 102.669 27.3484 105.353 20.5768 85.6957C17.9051 77.9402 24.494 68.1834 32.7205 60.0937C15.1427 65.6058 -4.44188 65.5197 2.05574 52.7854Z" fill="#64A2FF"/>
</svg>
