<svg width="287" height="39" viewBox="0 0 287 39" fill="none" xmlns="http://www.w3.org/2000/svg">
    <path d="M10.3034 19.7305C7.58055 19.7305 5.66501 21.3399 6.85049 24.765C8.03597 28.19 15.5659 31.1481 11.868 34.7934C10.3115 36.3279 6.17499 37.3304 2 33.7881" stroke="#64A2FF" stroke-width="2.06905" stroke-linecap="round" stroke-linejoin="round"/>
    <path d="M19.6289 11.9531C22.1814 28.2174 16.3812 38.329 25.9912 35.6685C26.5217 35.5216 27.9829 34.6402 28.1105 34.4053" stroke="#64A2FF" stroke-width="2.06905" stroke-linecap="round" stroke-linejoin="round"/>
    <path d="M16.5195 26.9858C19.3879 26.402 22.2563 25.8182 25.1246 25.2344" stroke="#64A2FF" stroke-width="2.06905" stroke-linecap="round" stroke-linejoin="round"/>
    <path d="M31.0332 20.2489C40.8257 16.3714 38.2566 24.7085 40.2923 35.2603" stroke="#64A2FF" stroke-width="2.06905" stroke-linecap="round" stroke-linejoin="round"/>
    <path d="M38.8091 27.5065C31.3826 27.2957 27.4543 40.0615 39.5239 32.2747" stroke="#64A2FF" stroke-width="2.06905" stroke-linecap="round" stroke-linejoin="round"/>
    <path d="M45.5488 21.8047C51.3693 55.6562 43.188 26.2674 54.1175 22.5255" stroke="#64A2FF" stroke-width="2.06905" stroke-linecap="round" stroke-linejoin="round"/>
    <path d="M60.0194 10.0117C60.2339 13.9013 56.8419 44.8178 68.6285 31.7269" stroke="#64A2FF" stroke-width="2.06905" stroke-linecap="round" stroke-linejoin="round"/>
    <path d="M54.8691 18.9356C58.106 18.8984 61.3429 18.8613 64.5797 18.8242" stroke="#64A2FF" stroke-width="2.06905" stroke-linecap="round" stroke-linejoin="round"/>
    <path d="M75.4707 23.5787C85.83 21.8023 94.1703 21.375 105.382 21.375" stroke="#151B31" stroke-width="2.06905" stroke-linecap="round" stroke-linejoin="round"/>
    <path d="M98.2051 16.5391C102.283 18.9704 105.055 20.5234 106.521 21.1981C104.12 23.2759 101.681 25.3004 99.2038 27.2717" stroke="#151B31" stroke-width="2.06905" stroke-linecap="round" stroke-linejoin="round"/>
    <path d="M119.67 19.2127C118.949 18.8806 116.815 18.8806 115.346 19.9938C112.902 21.845 113.105 25.5442 117.472 26.6067C123.862 28.1617 122.629 31.8022 121.168 33.1206C119.412 34.7049 116.908 34.3222 114.532 33.3412" stroke="#151B31" stroke-width="2.06905" stroke-linecap="round" stroke-linejoin="round"/>
    <path d="M128.998 6.77344C133.61 37.3585 126.239 41.4933 138.425 30.3109" stroke="#151B31" stroke-width="2.06905" stroke-linecap="round" stroke-linejoin="round"/>
    <path d="M123.299 17.6568C127.445 17.5225 131.591 17.3882 135.737 17.2539" stroke="#151B31" stroke-width="2.06905" stroke-linecap="round" stroke-linejoin="round"/>
    <path fill-rule="evenodd" clip-rule="evenodd" d="M145.582 18.6905C142.769 19.1368 140.502 21.7836 141.971 25.7832C142.653 27.642 144.314 29.8623 147.601 29.341C150.888 28.8198 152.431 25.2615 151.673 22.475C150.605 18.5484 148.396 18.2441 145.582 18.6905Z" stroke="#151B31" stroke-width="2.06905" stroke-linecap="round" stroke-linejoin="round"/>
    <path d="M154.949 16.6484C155.914 23.7397 156.879 30.831 157.845 37.9223" stroke="#151B31" stroke-width="2.06905" stroke-linecap="round" stroke-linejoin="round"/>
    <path d="M155.986 20.7964C157.313 19.5932 159.956 19.2114 160.691 20.3691C163.413 24.6603 161.031 29.3555 157.313 27.4274" stroke="#151B31" stroke-width="2.06905" stroke-linecap="round" stroke-linejoin="round"/>
    <path d="M171.1 25.0947C177.278 24.386 183.457 23.6774 189.636 22.9688" stroke="#151B31" stroke-width="2.06905" stroke-linecap="round" stroke-linejoin="round"/>
    <path d="M183.889 18.5352C193.485 24.1773 192.728 20.4628 186.812 29.5254" stroke="#151B31" stroke-width="2.06905" stroke-linecap="round" stroke-linejoin="round"/>
    <path d="M206.331 20.2681C203.399 19.6699 201.813 20.7222 201.144 22.2349C199.223 26.575 203.399 31.1239 209.419 27.1441" stroke="#151B31" stroke-width="2.06905" stroke-linecap="round" stroke-linejoin="round"/>
    <path fill-rule="evenodd" clip-rule="evenodd" d="M216.544 29.8502C219.379 29.8502 220.569 26.6215 219.539 22.5586C218.742 19.4136 217.673 18.5692 215.359 18.9045C213.357 19.1947 212.792 21.8771 212.954 23.9774C213.199 27.15 213.709 29.8502 216.544 29.8502Z" stroke="#151B31" stroke-width="2.06905" stroke-linecap="round" stroke-linejoin="round"/>
    <path d="M224.269 16.5117C223.523 28.4585 223.291 32.3855 223.458 32.3925C223.765 32.4051 225.501 19.5888 228.963 18.8365C232.425 18.0843 229.122 33.3262 231.051 30.4719" stroke="#151B31" stroke-width="2.06905" stroke-linecap="round" stroke-linejoin="round"/>
    <path d="M235.674 2C238.22 30.331 229.523 30.0221 244.712 26.4911" stroke="#151B31" stroke-width="2.06905" stroke-linecap="round" stroke-linejoin="round"/>
    <path d="M231.846 14.957C234.578 15.4814 237.31 16.0058 240.042 16.5303" stroke="#151B31" stroke-width="2.06905" stroke-linecap="round" stroke-linejoin="round"/>
    <path d="M248.49 18.1758C248.641 21.7029 248.793 25.2299 248.944 28.757" stroke="#151B31" stroke-width="2.06905" stroke-linecap="round" stroke-linejoin="round"/>
    <path d="M248.489 11.4375C248.483 11.97 248.478 12.5025 248.473 13.035" stroke="#151B31" stroke-width="2.06905" stroke-linecap="round" stroke-linejoin="round"/>
    <path d="M255.32 14.957C255.361 25.7341 255.113 29.1296 255.32 29.182C255.772 29.296 257.715 14.957 260.077 14.957C262.44 14.957 263.257 21.5877 262.915 28.5506" stroke="#151B31" stroke-width="2.06905" stroke-linecap="round" stroke-linejoin="round"/>
    <path d="M267.111 17.792C267.111 23.1565 267.87 28.2156 270.397 27.6737C272.924 27.1319 273.662 21.7131 273.062 17.1953" stroke="#151B31" stroke-width="2.06905" stroke-linecap="round" stroke-linejoin="round"/>
    <path d="M278.031 22.5346C280.466 21.6613 282.52 21.0011 285.467 20.1634C285.467 19.2575 284.253 15.1709 280.415 16.4006C274.974 18.1442 277.144 33.8376 284.587 27.0396" stroke="#151B31" stroke-width="2.06905" stroke-linecap="round" stroke-linejoin="round"/>
</svg>
