<svg width="97" height="28" viewBox="0 0 97 28" fill="none" xmlns="http://www.w3.org/2000/svg">
    <circle cx="14" cy="14" r="14" fill="#111111"/>
    <path d="M15.7647 10.052C15.7748 9.25823 15.7793 8.35743 15.7894 7.56365C15.8115 7.08823 15.7844 6.61195 15.7084 6.14129C15.6387 5.78492 15.5037 5.42543 15.227 5.16985C15.1556 5.09448 15.0582 5.04419 14.9513 5.02751C14.7398 5.00984 14.5846 5.20102 14.4879 5.37349C13.9603 6.30857 13.7983 7.37976 13.643 8.42601" fill="#FEFDFB"/>
    <path d="M15.7647 10.052C15.7748 9.25823 15.7793 8.35743 15.7894 7.56365C15.8115 7.08823 15.7844 6.61195 15.7084 6.14129C15.6387 5.78492 15.5037 5.42543 15.227 5.16985C15.1556 5.09448 15.0582 5.04419 14.9513 5.02751C14.7398 5.00984 14.5846 5.20102 14.4879 5.37349C13.9603 6.30857 13.7983 7.37976 13.643 8.42601" stroke="#FEFDFB" stroke-width="0.478049" stroke-miterlimit="10"/>
    <path d="M8.92415 15.034C8.76914 12.4668 8.50412 9.84968 8.66813 7.88755C8.72213 7.24851 8.80314 6.45046 8.92315 5.81943C9.12316 4.80136 10.1452 4.67536 10.4662 5.96144C10.7168 6.90256 10.8977 7.86089 11.0072 8.82862L11.0753 9.70367C11.0592 9.39665 11.0362 9.10863 11.0072 8.82862L10.9352 7.91556C12.6633 7.21552 14.7894 8.09257 15.7755 9.67667C16.2655 10.4647 16.5215 11.3988 17.1255 12.1028C18.0436 13.1739 19.5427 13.4849 20.9177 13.8029C21.4998 13.9359 22.0898 14.0849 22.6048 14.389C23.1198 14.693 23.5588 15.175 23.6749 15.7621C23.7909 16.3491 23.3748 17.3692 22.0458 17.3512C20.9127 17.3361 19.7807 17.2711 18.6456 17.2311C17.7746 17.2011 16.8245 17.1941 16.1335 17.7252C15.6255 18.1152 15.3455 18.7442 15.2474 19.3763C15.1494 20.0083 15.2114 20.6534 15.2745 21.2904C14.9394 23.1465 12.6953 23.3025 10.7392 22.5595C9.97623 22.2794 9.27636 21.8508 8.68014 21.2984C9.11616 19.5813 9.06715 17.3252 8.92415 15.034Z" fill="#FEFDFB" stroke="#FEFDFB" stroke-width="0.478049" stroke-miterlimit="10"/>
    <path d="M23.425 12.5854C23.4799 12.6676 23.5126 12.762 23.5199 12.8598C23.5272 12.9576 23.509 13.0556 23.4669 13.1446C23.4238 13.2337 23.3555 13.3089 23.2699 13.3613C23.1844 13.4137 23.0853 13.4411 22.9842 13.4403C22.3954 13.4317 22.3327 12.9901 22.4509 12.645C22.4888 12.5516 22.554 12.471 22.6383 12.4133C22.7227 12.3556 22.8225 12.3233 22.9255 12.3203C23.025 12.3199 23.1229 12.3439 23.2102 12.3903C23.2976 12.4366 23.3714 12.5037 23.425 12.5854Z" fill="#FEFDFB" stroke="white" stroke-width="0.478049" stroke-miterlimit="10"/>
    <path d="M40.6499 17.9995V18.1495H40.7999H41.7439H41.8939V17.9995V7.76548H46.4159H46.5659V7.61548V6.75148V6.60148H46.4159H36.1279H35.9779V6.75148V7.61548V7.76548H36.1279H40.6499V17.9995ZM46.6393 17.9995V18.1495H46.7893H47.6693H47.8193V17.9995V13.7915C47.8193 11.9034 48.8872 10.6135 50.2933 10.6135C51.3607 10.6135 52.2512 11.3481 52.3846 12.3709L52.4084 12.5536L52.5825 12.4932L53.3665 12.2212L53.4839 12.1805L53.4657 12.0576C53.2464 10.5733 51.9649 9.48148 50.4053 9.48148C49.2967 9.48148 48.3619 10.0253 47.7804 10.9342L47.7392 9.94524L47.7332 9.80148H47.5893H46.7893H46.6393V9.95148V17.9995ZM62.5918 16.748V16.7515C62.5918 17.2486 62.7551 17.6795 63.0494 17.9872C63.3442 18.2954 63.7607 18.4695 64.2458 18.4695C64.895 18.4695 65.6187 18.1473 65.9872 17.5858L66.0522 17.4868L65.9709 17.4006L65.4429 16.8406L65.309 16.6985L65.2063 16.8645C65.026 17.1558 64.6746 17.3375 64.3738 17.3375C64.1896 17.3375 64.0438 17.2696 63.9424 17.1544C63.8395 17.0374 63.7718 16.8593 63.7718 16.6235V12.6555C63.7718 11.6344 63.2964 10.8342 62.5258 10.2946C61.7599 9.75827 60.7073 9.48148 59.5418 9.48148C58.4135 9.48148 57.3649 9.76338 56.5343 10.2136C55.7063 10.6625 55.0818 11.2864 54.8251 11.9794L54.7835 12.0918L54.884 12.1572L55.572 12.6052L55.7318 12.7093L55.7953 12.5294C55.9705 12.0328 56.4362 11.5532 57.1027 11.1957C57.7662 10.8397 58.6137 10.6135 59.5258 10.6135C60.4353 10.6135 61.2131 10.8059 61.7583 11.1467C62.2992 11.4847 62.6078 11.9647 62.6078 12.5595C62.6078 12.6683 62.5663 12.752 62.4975 12.814C62.4261 12.8782 62.3185 12.9246 62.1833 12.9382C62.1831 12.9382 62.183 12.9382 62.1829 12.9382L58.9677 13.2421L58.9661 13.2423C57.3651 13.4113 56.2567 13.7427 55.5449 14.2145C54.8231 14.6928 54.5118 15.3147 54.5118 16.0315C54.5118 16.8169 54.8955 17.4387 55.5708 17.857C56.2393 18.2711 57.1903 18.4855 58.3418 18.4855C60.1491 18.4855 61.7715 17.8024 62.5918 16.748ZM76.6285 15.1297L76.6704 14.9869L76.5279 14.9439L75.6799 14.6879L75.5336 14.6437L75.4922 14.7909C75.0831 16.2451 73.3969 17.3535 71.5086 17.3535C69.2455 17.3535 67.5306 15.9409 67.5306 13.9835C67.5306 11.9995 69.0656 10.6135 71.2206 10.6135C72.7939 10.6135 74.1794 11.4391 74.5996 12.5947L74.6483 12.7288L74.7847 12.6869L75.6167 12.4309L75.7639 12.3856L75.7147 12.2396C75.1602 10.5929 73.2641 9.48148 71.1886 9.48148C68.3965 9.48148 66.3506 11.3623 66.3506 13.9835C66.3506 16.598 68.5828 18.4695 71.4766 18.4695C73.861 18.4695 76.0611 17.0655 76.6285 15.1297ZM78.3318 17.9995V18.1495H78.4818H79.3618H79.5118V17.9995V14.8274L80.9716 13.754L84.7689 18.0982L84.8137 18.1495H84.8818H86.0338H86.3651L86.1465 17.9005L81.8864 13.0474L85.9307 10.0723L86.2988 9.80148H85.8418H84.4498H84.4009L84.3614 9.83031L79.5118 13.3684V6.27148V6.12148H79.3618H78.4818H78.3318V6.27148V17.9995ZM96.5134 9.95148V9.80148H96.3634H95.4834H95.3334V9.95148V13.7915C95.3334 15.9313 93.7859 17.3535 91.8514 17.3535C90.9041 17.3535 90.1125 17.0192 89.5576 16.4416C89.0023 15.8635 88.6734 15.0306 88.6734 14.0155V9.95148V9.80148H88.5234H87.6434H87.4934V9.95148V14.0635C87.4934 15.3449 87.9169 16.4479 88.6714 17.2315C89.4264 18.0157 90.5028 18.4695 91.7874 18.4695C93.3127 18.4695 94.5994 17.802 95.3243 16.6769L95.3334 17.4395C95.3334 17.4398 95.3334 17.44 95.3334 17.4403C95.333 19.5093 93.7762 21.0335 91.4834 21.0335C89.596 21.0335 87.9287 20.0033 87.3167 18.6111L87.2404 18.4374L87.089 18.5518L86.369 19.0958L86.2695 19.171L86.3253 19.2826C87.1711 20.9743 89.2453 22.1495 91.4834 22.1495C94.4046 22.1495 96.5134 20.1876 96.5134 17.4395V9.95148ZM58.4218 17.3535C57.5204 17.3535 56.828 17.2224 56.3666 16.9842C55.9132 16.7501 55.6918 16.4197 55.6918 15.9995C55.6918 15.6244 55.8764 15.281 56.3844 14.9896C56.9012 14.6932 57.7401 14.46 59.0127 14.3247C59.013 14.3247 59.0133 14.3247 59.0137 14.3246L62.5918 13.9882V14.4454C62.5458 16.0691 60.896 17.3535 58.4218 17.3535Z" fill="black" stroke="black" stroke-width="0.3"/>
</svg>
