<svg width="28" height="28" viewBox="0 0 28 28" fill="none" xmlns="http://www.w3.org/2000/svg">
    <circle cx="14" cy="14" r="14" fill="#111111"/>
    <path d="M15.7637 10.0491C15.7738 9.2553 15.7783 8.3545 15.7885 7.56072C15.8106 7.0853 15.7834 6.60902 15.7074 6.13836C15.6377 5.78199 15.5027 5.4225 15.226 5.16692C15.1546 5.09155 15.0573 5.04126 14.9504 5.02458C14.7389 5.00691 14.5836 5.19809 14.4869 5.37056C13.9593 6.30564 13.7973 7.37683 13.6421 8.42308" fill="#FEFDFB"/>
    <path d="M15.7637 10.0491C15.7738 9.2553 15.7783 8.3545 15.7885 7.56072C15.8106 7.0853 15.7834 6.60902 15.7074 6.13836C15.6377 5.78199 15.5027 5.4225 15.226 5.16692C15.1546 5.09155 15.0573 5.04126 14.9504 5.02458C14.7389 5.00691 14.5836 5.19809 14.4869 5.37056C13.9593 6.30564 13.7973 7.37683 13.6421 8.42308" stroke="#FEFDFB" stroke-width="0.478049" stroke-miterlimit="10"/>
    <path d="M8.92415 15.0311C8.76914 12.4639 8.50412 9.84675 8.66813 7.88462C8.72213 7.24558 8.80314 6.44754 8.92315 5.8165C9.12316 4.79843 10.1452 4.67243 10.4662 5.95851C10.7168 6.89963 10.8977 7.85796 11.0072 8.82569L11.0753 9.70074C11.0592 9.39372 11.0362 9.10571 11.0072 8.82569L10.9352 7.91263C12.6633 7.21259 14.7894 8.08964 15.7755 9.67374C16.2655 10.4618 16.5215 11.3958 17.1255 12.0999C18.0436 13.171 19.5427 13.482 20.9177 13.8C21.4998 13.933 22.0898 14.082 22.6048 14.386C23.1198 14.6901 23.5588 15.1721 23.6749 15.7591C23.7909 16.3462 23.3748 17.3662 22.0458 17.3482C20.9127 17.3332 19.7807 17.2682 18.6456 17.2282C17.7746 17.1982 16.8245 17.1912 16.1335 17.7222C15.6255 18.1123 15.3455 18.7413 15.2474 19.3733C15.1494 20.0054 15.2114 20.6504 15.2745 21.2875C14.9394 23.1436 12.6953 23.2996 10.7392 22.5566C9.97623 22.2765 9.27636 21.8479 8.68014 21.2955C9.11616 19.5784 9.06715 17.3222 8.92415 15.0311Z" fill="#FEFDFB" stroke="#FEFDFB" stroke-width="0.478049" stroke-miterlimit="10"/>
    <path d="M23.426 12.5815C23.4809 12.6637 23.5136 12.758 23.5209 12.8558C23.5282 12.9536 23.5099 13.0517 23.4678 13.1407C23.4248 13.2298 23.3565 13.305 23.2709 13.3574C23.1854 13.4098 23.0862 13.4372 22.9852 13.4364C22.3964 13.4278 22.3337 12.9862 22.4519 12.6411C22.4898 12.5477 22.5549 12.4671 22.6393 12.4094C22.7236 12.3517 22.8235 12.3194 22.9265 12.3164C23.0259 12.3159 23.1239 12.34 23.2112 12.3864C23.2985 12.4327 23.3724 12.4998 23.426 12.5815Z" fill="#FEFDFB" stroke="white" stroke-width="0.478049" stroke-miterlimit="10"/>
</svg>
