<svg width="128" height="128" viewBox="0 0 128 128" fill="none" xmlns="http://www.w3.org/2000/svg">
    <g filter="url(#filter0_d_2622_49951)">
        <circle cx="64.0002" cy="64" r="50.6755" transform="rotate(18.2567 64.0002 64)" fill="#86E0C1"/>
        <circle cx="64.0002" cy="64" r="49.1755" transform="rotate(18.2567 64.0002 64)" stroke="#151B31" stroke-width="3"/>
    </g>
    <path d="M42.25 66.4167C42.25 63.7473 44.414 61.5833 47.0833 61.5833H80.9167C83.586 61.5833 85.75 63.7473 85.75 66.4167V80.9167C85.75 83.586 83.586 85.75 80.9167 85.75H47.0833C44.414 85.75 42.25 83.586 42.25 80.9167V66.4167Z" fill="white"/>
    <path d="M80.9167 61.5833H47.0833M80.9167 61.5833C83.586 61.5833 85.75 63.7473 85.75 66.4167V80.9167C85.75 83.586 83.586 85.75 80.9167 85.75H47.0833C44.414 85.75 42.25 83.586 42.25 80.9167V66.4167C42.25 63.7473 44.414 61.5833 47.0833 61.5833M80.9167 61.5833V56.75C80.9167 54.0806 78.7527 51.9167 76.0833 51.9167M47.0833 61.5833V56.75C47.0833 54.0806 49.2473 51.9167 51.9167 51.9167M51.9167 51.9167V47.0833C51.9167 44.414 54.0806 42.25 56.75 42.25H71.25C73.9194 42.25 76.0833 44.414 76.0833 47.0833V51.9167M51.9167 51.9167H76.0833" stroke="#151B31" stroke-width="3" stroke-linecap="round" stroke-linejoin="round"/>
    <path d="M58.9878 72.3711C58.3643 71.8256 57.4167 71.8888 56.8711 72.5122C56.3256 73.1357 56.3888 74.0833 57.0122 74.6289L58.9878 72.3711ZM62 77L61.0122 78.1289C61.5778 78.6237 62.4222 78.6237 62.9878 78.1289L62 77ZM70.9878 71.1289C71.6112 70.5833 71.6744 69.6357 71.1289 69.0122C70.5833 68.3888 69.6357 68.3256 69.0122 68.8711L70.9878 71.1289ZM57.0122 74.6289L61.0122 78.1289L62.9878 75.8711L58.9878 72.3711L57.0122 74.6289ZM62.9878 78.1289L70.9878 71.1289L69.0122 68.8711L61.0122 75.8711L62.9878 78.1289Z" fill="#151B31"/>
    <defs>
        <filter id="filter0_d_2622_49951" x="13.311" y="13.3125" width="101.378" height="105.375" filterUnits="userSpaceOnUse" color-interpolation-filters="sRGB">
            <feFlood flood-opacity="0" result="BackgroundImageFix"/>
            <feColorMatrix in="SourceAlpha" type="matrix" values="0 0 0 0 0 0 0 0 0 0 0 0 0 0 0 0 0 0 127 0" result="hardAlpha"/>
            <feOffset dy="4"/>
            <feColorMatrix type="matrix" values="0 0 0 0 0 0 0 0 0 0 0 0 0 0 0 0 0 0 1 0"/>
            <feBlend mode="normal" in2="BackgroundImageFix" result="effect1_dropShadow_2622_49951"/>
            <feBlend mode="normal" in="SourceGraphic" in2="effect1_dropShadow_2622_49951" result="shape"/>
        </filter>
    </defs>
</svg>
