<svg width="128" height="128" viewBox="0 0 128 128" fill="none" xmlns="http://www.w3.org/2000/svg">
    <g filter="url(#filter0_d_2622_65721)">
        <circle cx="64" cy="64" r="50.6755" transform="rotate(18.2567 64 64)" fill="#86E0C1"/>
        <circle cx="64" cy="64" r="49.1755" transform="rotate(18.2567 64 64)" stroke="#151B31" stroke-width="3"/>
    </g>
    <rect x="45.7144" y="45.7148" width="36.5714" height="42.0571" rx="5" fill="white"/>
    <path d="M55.9999 45.3333C55.9999 42.3878 58.3877 40 61.3333 40H66.6666C69.6121 40 71.9999 42.3878 71.9999 45.3333C71.9999 48.2789 69.6121 50.6667 66.6666 50.6667H61.3333C58.3877 50.6667 55.9999 48.2789 55.9999 45.3333Z" fill="white"/>
    <path d="M57.0606 68.2727C56.4748 67.6869 55.525 67.6869 54.9393 68.2727C54.3535 68.8585 54.3535 69.8082 54.9393 70.394L57.0606 68.2727ZM61.3333 74.6667L60.2726 75.7273C60.8584 76.3131 61.8081 76.3131 62.3939 75.7273L61.3333 74.6667ZM73.0606 65.0607C73.6464 64.4749 73.6464 63.5251 73.0606 62.9393C72.4748 62.3536 71.525 62.3536 70.9393 62.9393L73.0606 65.0607ZM81.1666 50.6667V82.6667H84.1666V50.6667H81.1666ZM77.3333 86.5H50.6666V89.5H77.3333V86.5ZM46.8333 82.6667V50.6667H43.8333V82.6667H46.8333ZM50.6666 46.8333H55.9999V43.8333H50.6666V46.8333ZM71.9999 46.8333H77.3333V43.8333H71.9999V46.8333ZM50.6666 86.5C48.5495 86.5 46.8333 84.7838 46.8333 82.6667H43.8333C43.8333 86.4406 46.8926 89.5 50.6666 89.5V86.5ZM81.1666 82.6667C81.1666 84.7838 79.4503 86.5 77.3333 86.5V89.5C81.1072 89.5 84.1666 86.4406 84.1666 82.6667H81.1666ZM84.1666 50.6667C84.1666 46.8927 81.1072 43.8333 77.3333 43.8333V46.8333C79.4503 46.8333 81.1666 48.5496 81.1666 50.6667H84.1666ZM46.8333 50.6667C46.8333 48.5496 48.5495 46.8333 50.6666 46.8333V43.8333C46.8926 43.8333 43.8333 46.8927 43.8333 50.6667H46.8333ZM54.9393 70.394L60.2726 75.7273L62.3939 73.606L57.0606 68.2727L54.9393 70.394ZM62.3939 75.7273L73.0606 65.0607L70.9393 62.9393L60.2726 73.606L62.3939 75.7273ZM61.3333 41.5H66.6666V38.5H61.3333V41.5ZM66.6666 49.1667H61.3333V52.1667H66.6666V49.1667ZM61.3333 49.1667C59.2162 49.1667 57.4999 47.4504 57.4999 45.3333H54.4999C54.4999 49.1073 57.5593 52.1667 61.3333 52.1667V49.1667ZM70.4999 45.3333C70.4999 47.4504 68.7837 49.1667 66.6666 49.1667V52.1667C70.4405 52.1667 73.4999 49.1073 73.4999 45.3333H70.4999ZM66.6666 41.5C68.7837 41.5 70.4999 43.2162 70.4999 45.3333H73.4999C73.4999 41.5594 70.4405 38.5 66.6666 38.5V41.5ZM61.3333 38.5C57.5593 38.5 54.4999 41.5594 54.4999 45.3333H57.4999C57.4999 43.2162 59.2162 41.5 61.3333 41.5V38.5Z" fill="#151B31"/>
    <defs>
        <filter id="filter0_d_2622_65721" x="13.3108" y="13.3125" width="101.378" height="105.375" filterUnits="userSpaceOnUse" color-interpolation-filters="sRGB">
            <feFlood flood-opacity="0" result="BackgroundImageFix"/>
            <feColorMatrix in="SourceAlpha" type="matrix" values="0 0 0 0 0 0 0 0 0 0 0 0 0 0 0 0 0 0 127 0" result="hardAlpha"/>
            <feOffset dy="4"/>
            <feColorMatrix type="matrix" values="0 0 0 0 0 0 0 0 0 0 0 0 0 0 0 0 0 0 1 0"/>
            <feBlend mode="normal" in2="BackgroundImageFix" result="effect1_dropShadow_2622_65721"/>
            <feBlend mode="normal" in="SourceGraphic" in2="effect1_dropShadow_2622_65721" result="shape"/>
        </filter>
    </defs>
</svg>
