<svg width="128" height="128" viewBox="0 0 128 128" fill="none" xmlns="http://www.w3.org/2000/svg">
    <g filter="url(#filter0_d_2644_49912)">
        <circle cx="64.0002" cy="64" r="50.6755" transform="rotate(18.2567 64.0002 64)" fill="#86E0C1"/>
        <circle cx="64.0002" cy="64" r="49.1755" transform="rotate(18.2567 64.0002 64)" stroke="#151B31" stroke-width="3"/>
    </g>
    <path d="M58 70.5H44.5C42.8431 70.5 41.5 69.1569 41.5 67.5V49.5C41.5 47.8431 42.8431 46.5 44.5 46.5H80.5C82.1569 46.5 83.5 47.8431 83.5 49.5V61.5" stroke="#151B31" stroke-width="3" stroke-linecap="round" stroke-linejoin="round"/>
    <path fill-rule="evenodd" clip-rule="evenodd" d="M74.5 91.5C81.1274 91.5 86.5 86.1274 86.5 79.5C86.5 72.8726 81.1274 67.5 74.5 67.5C67.8726 67.5 62.5 72.8726 62.5 79.5C62.5 86.1274 67.8726 91.5 74.5 91.5Z" fill="white" stroke="#151B31" stroke-width="3" stroke-linecap="round" stroke-linejoin="round"/>
    <path d="M78.25 77L72.78 82.47C72.6395 82.6107 72.4488 82.6898 72.25 82.6898C72.0512 82.6898 71.8605 82.6107 71.72 82.47L70 80.751" stroke="#151B31" stroke-width="3" stroke-linecap="round" stroke-linejoin="round"/>
    <path d="M50.5 57.75C50.9142 57.75 51.25 58.0858 51.25 58.5C51.25 58.9142 50.9142 59.25 50.5 59.25C50.0858 59.25 49.75 58.9142 49.75 58.5C49.7495 58.3009 49.8283 58.1099 49.9691 57.9691C50.1099 57.8283 50.3009 57.7495 50.5 57.75" stroke="#151B31" stroke-width="3" stroke-linecap="round" stroke-linejoin="round"/>
    <path d="M62.5 57.75C62.9142 57.75 63.25 58.0858 63.25 58.5C63.25 58.9142 62.9142 59.25 62.5 59.25C62.0858 59.25 61.75 58.9142 61.75 58.5C61.7495 58.3009 61.8283 58.1099 61.9691 57.9691C62.1099 57.8283 62.3009 57.7495 62.5 57.75" stroke="#151B31" stroke-width="3" stroke-linecap="round" stroke-linejoin="round"/>
    <path d="M74.5 57.75C74.9142 57.75 75.25 58.0858 75.25 58.5C75.25 58.9142 74.9142 59.25 74.5 59.25C74.0858 59.25 73.75 58.9142 73.75 58.5C73.7495 58.3009 73.8283 58.1099 73.9691 57.9691C74.1099 57.8283 74.3009 57.7495 74.5 57.75" stroke="#151B31" stroke-width="3" stroke-linecap="round" stroke-linejoin="round"/>
    <defs>
        <filter id="filter0_d_2644_49912" x="13.3105" y="13.3105" width="101.379" height="105.379" filterUnits="userSpaceOnUse" color-interpolation-filters="sRGB">
            <feFlood flood-opacity="0" result="BackgroundImageFix"/>
            <feColorMatrix in="SourceAlpha" type="matrix" values="0 0 0 0 0 0 0 0 0 0 0 0 0 0 0 0 0 0 127 0" result="hardAlpha"/>
            <feOffset dy="4"/>
            <feColorMatrix type="matrix" values="0 0 0 0 0 0 0 0 0 0 0 0 0 0 0 0 0 0 1 0"/>
            <feBlend mode="normal" in2="BackgroundImageFix" result="effect1_dropShadow_2644_49912"/>
            <feBlend mode="normal" in="SourceGraphic" in2="effect1_dropShadow_2644_49912" result="shape"/>
        </filter>
    </defs>
</svg>
