<svg width="128" height="128" viewBox="0 0 128 128" fill="none" xmlns="http://www.w3.org/2000/svg">
    <g filter="url(#filter0_d_2613_48008)">
        <circle cx="64.0002" cy="64" r="50.6755" transform="rotate(18.2567 64.0002 64)" fill="#86E0C1"/>
        <circle cx="64.0002" cy="64" r="49.1755" transform="rotate(18.2567 64.0002 64)" stroke="#151B31" stroke-width="3"/>
    </g>
    <path d="M42.333 46.9154C42.333 45.4886 43.4896 44.332 44.9163 44.332H81.083C82.5097 44.332 83.6663 45.4886 83.6663 46.9154V52.082C83.6663 53.5088 82.5097 54.6654 81.083 54.6654H44.9163C43.4896 54.6654 42.333 53.5088 42.333 52.082V46.9154Z" fill="white"/>
    <path d="M42.333 67.582C42.333 66.1553 43.4896 64.9987 44.9163 64.9987H60.4163C61.8431 64.9987 62.9997 66.1553 62.9997 67.582V83.082C62.9997 84.5088 61.8431 85.6654 60.4163 85.6654H44.9163C43.4896 85.6654 42.333 84.5088 42.333 83.082V67.582Z" fill="white"/>
    <path d="M73.333 67.582C73.333 66.1553 74.4896 64.9987 75.9163 64.9987H81.083C82.5097 64.9987 83.6663 66.1553 83.6663 67.582V83.082C83.6663 84.5088 82.5097 85.6654 81.083 85.6654H75.9163C74.4896 85.6654 73.333 84.5088 73.333 83.082V67.582Z" fill="white"/>
    <path d="M42.333 46.9154C42.333 45.4886 43.4896 44.332 44.9163 44.332H81.083C82.5097 44.332 83.6663 45.4886 83.6663 46.9154V52.082C83.6663 53.5088 82.5097 54.6654 81.083 54.6654H44.9163C43.4896 54.6654 42.333 53.5088 42.333 52.082V46.9154Z" stroke="#011D31" stroke-width="3" stroke-linecap="round" stroke-linejoin="round"/>
    <path d="M42.333 67.582C42.333 66.1553 43.4896 64.9987 44.9163 64.9987H60.4163C61.8431 64.9987 62.9997 66.1553 62.9997 67.582V83.082C62.9997 84.5088 61.8431 85.6654 60.4163 85.6654H44.9163C43.4896 85.6654 42.333 84.5088 42.333 83.082V67.582Z" stroke="#011D31" stroke-width="3" stroke-linecap="round" stroke-linejoin="round"/>
    <path d="M73.333 67.582C73.333 66.1553 74.4896 64.9987 75.9163 64.9987H81.083C82.5097 64.9987 83.6663 66.1553 83.6663 67.582V83.082C83.6663 84.5088 82.5097 85.6654 81.083 85.6654H75.9163C74.4896 85.6654 73.333 84.5088 73.333 83.082V67.582Z" stroke="#011D31" stroke-width="3" stroke-linecap="round" stroke-linejoin="round"/>
    <path d="M50.1294 74.0625C49.5251 73.4959 48.5758 73.5265 48.0092 74.1309C47.4426 74.7352 47.4732 75.6845 48.0776 76.2511L50.1294 74.0625ZM51.9541 77.8292L50.9282 78.9235C51.5052 79.4644 52.403 79.4644 52.98 78.9235L51.9541 77.8292ZM58.6812 73.5787C59.2855 73.0121 59.3161 72.0628 58.7495 71.4585C58.183 70.8541 57.2337 70.8235 56.6293 71.3901L58.6812 73.5787ZM48.0776 76.2511L50.9282 78.9235L52.98 76.7349L50.1294 74.0625L48.0776 76.2511ZM52.98 78.9235L58.6812 73.5787L56.6293 71.3901L50.9282 76.7349L52.98 78.9235Z" fill="#011D31"/>
    <defs>
        <filter id="filter0_d_2613_48008" x="13.3105" y="13.3125" width="101.379" height="105.375" filterUnits="userSpaceOnUse" color-interpolation-filters="sRGB">
            <feFlood flood-opacity="0" result="BackgroundImageFix"/>
            <feColorMatrix in="SourceAlpha" type="matrix" values="0 0 0 0 0 0 0 0 0 0 0 0 0 0 0 0 0 0 127 0" result="hardAlpha"/>
            <feOffset dy="4"/>
            <feColorMatrix type="matrix" values="0 0 0 0 0 0 0 0 0 0 0 0 0 0 0 0 0 0 1 0"/>
            <feBlend mode="normal" in2="BackgroundImageFix" result="effect1_dropShadow_2613_48008"/>
            <feBlend mode="normal" in="SourceGraphic" in2="effect1_dropShadow_2613_48008" result="shape"/>
        </filter>
    </defs>
</svg>
