<svg width="128" height="128" viewBox="0 0 128 128" fill="none" xmlns="http://www.w3.org/2000/svg">
    <g filter="url(#filter0_d_2622_65997)">
        <circle cx="64" cy="64" r="50.6755" transform="rotate(18.2567 64 64)" fill="#86E0C1"/>
        <circle cx="64" cy="64" r="49.1755" transform="rotate(18.2567 64 64)" stroke="#151B31" stroke-width="3"/>
    </g>
    <path fill-rule="evenodd" clip-rule="evenodd" d="M76.3846 85.2323H51.6154C49.6611 85.2323 48.0769 83.648 48.0769 81.6938V49.8477H79.9231V81.6938C79.9231 83.648 78.3388 85.2323 76.3846 85.2323Z" fill="white" stroke="#151B31" stroke-width="3" stroke-linecap="round" stroke-linejoin="round"/>
    <path d="M58.6924 74.6148V60.4609" stroke="#151B31" stroke-width="3" stroke-linecap="round" stroke-linejoin="round"/>
    <path d="M69.3076 74.6148V60.4609" stroke="#151B31" stroke-width="3" stroke-linecap="round" stroke-linejoin="round"/>
    <path d="M41 49.8477H87" stroke="#151B31" stroke-width="3" stroke-linecap="round" stroke-linejoin="round"/>
    <path fill-rule="evenodd" clip-rule="evenodd" d="M69.3077 42.7695H58.6923C56.738 42.7695 55.1538 44.3538 55.1538 46.308V49.8465H72.8461V46.308C72.8461 44.3538 71.2619 42.7695 69.3077 42.7695Z" stroke="#151B31" stroke-width="3" stroke-linecap="round" stroke-linejoin="round"/>
    <defs>
        <filter id="filter0_d_2622_65997" x="13.3108" y="13.3125" width="101.378" height="105.375" filterUnits="userSpaceOnUse" color-interpolation-filters="sRGB">
            <feFlood flood-opacity="0" result="BackgroundImageFix"/>
            <feColorMatrix in="SourceAlpha" type="matrix" values="0 0 0 0 0 0 0 0 0 0 0 0 0 0 0 0 0 0 127 0" result="hardAlpha"/>
            <feOffset dy="4"/>
            <feColorMatrix type="matrix" values="0 0 0 0 0 0 0 0 0 0 0 0 0 0 0 0 0 0 1 0"/>
            <feBlend mode="normal" in2="BackgroundImageFix" result="effect1_dropShadow_2622_65997"/>
            <feBlend mode="normal" in="SourceGraphic" in2="effect1_dropShadow_2622_65997" result="shape"/>
        </filter>
    </defs>
</svg>
