<svg width="128" height="128" viewBox="0 0 128 128" fill="none" xmlns="http://www.w3.org/2000/svg">
    <g filter="url(#filter0_d_2638_46648)">
        <circle cx="64.0002" cy="64" r="50.6755" transform="rotate(18.2567 64.0002 64)" fill="#86E0C1"/>
        <circle cx="64.0002" cy="64" r="49.1755" transform="rotate(18.2567 64.0002 64)" stroke="#151B31" stroke-width="3"/>
    </g>
    <path d="M52.3337 85H75.667C78.2443 85 80.3337 82.9107 80.3337 80.3333V57.9665C80.3337 57.3477 80.0878 56.7542 79.6502 56.3166L67.0171 43.6834C66.5795 43.2458 65.986 43 65.3672 43H52.3337C49.7563 43 47.667 45.0893 47.667 47.6667V80.3333C47.667 82.9107 49.7563 85 52.3337 85Z" fill="white"/>
    <path d="M64.0003 59.3333V73.3333M64.0003 73.3333L57.0003 66.3333M64.0003 73.3333L71.0003 66.3333M75.667 85H52.3337C49.7563 85 47.667 82.9107 47.667 80.3333V47.6667C47.667 45.0893 49.7563 43 52.3337 43H65.3672C65.986 43 66.5795 43.2458 67.0171 43.6834L79.6502 56.3166C80.0878 56.7542 80.3337 57.3477 80.3337 57.9665V80.3333C80.3337 82.9107 78.2443 85 75.667 85Z" stroke="#151B31" stroke-width="3" stroke-linecap="round" stroke-linejoin="round"/>
    <defs>
        <filter id="filter0_d_2638_46648" x="13.3105" y="13.3125" width="101.379" height="105.375" filterUnits="userSpaceOnUse" color-interpolation-filters="sRGB">
            <feFlood flood-opacity="0" result="BackgroundImageFix"/>
            <feColorMatrix in="SourceAlpha" type="matrix" values="0 0 0 0 0 0 0 0 0 0 0 0 0 0 0 0 0 0 127 0" result="hardAlpha"/>
            <feOffset dy="4"/>
            <feColorMatrix type="matrix" values="0 0 0 0 0 0 0 0 0 0 0 0 0 0 0 0 0 0 1 0"/>
            <feBlend mode="normal" in2="BackgroundImageFix" result="effect1_dropShadow_2638_46648"/>
            <feBlend mode="normal" in="SourceGraphic" in2="effect1_dropShadow_2638_46648" result="shape"/>
        </filter>
    </defs>
</svg>
