<svg width="128" height="128" viewBox="0 0 128 128" fill="none" xmlns="http://www.w3.org/2000/svg">
    <g filter="url(#filter0_d_2622_65445)">
        <circle cx="64" cy="64" r="50.6755" transform="rotate(18.2567 64 64)" fill="#86E0C1"/>
        <circle cx="64" cy="64" r="49.1755" transform="rotate(18.2567 64 64)" stroke="#151B31" stroke-width="3"/>
    </g>
    <path d="M59 59H47.0902C43.3733 59 40.9558 62.9116 42.6181 66.2361L51.3681 83.7361C52.215 85.43 53.9463 86.5 55.8402 86.5H65.8845C66.2933 86.5 66.7006 86.4499 67.0972 86.3507L76.5 84V61.5L68.0192 48.7787C67.0286 47.2929 66.5 45.5471 66.5 43.7613C66.5 42.5124 65.4876 41.5 64.2387 41.5H64C61.2386 41.5 59 43.7386 59 46.5V59Z" fill="white"/>
    <path d="M59 59H47.0902C43.3733 59 40.9558 62.9116 42.6181 66.2361L51.3681 83.7361C52.215 85.43 53.9463 86.5 55.8402 86.5H65.8845C66.2933 86.5 66.7006 86.4499 67.0972 86.3507L76.5 84M59 59V46.5C59 43.7386 61.2386 41.5 64 41.5H64.2387C65.4876 41.5 66.5 42.5124 66.5 43.7613C66.5 45.5471 67.0286 47.2929 68.0192 48.7787L76.5 61.5V84M59 59H64M76.5 84H81.5C84.2614 84 86.5 81.7614 86.5 79V64C86.5 61.2386 84.2614 59 81.5 59H75.25" stroke="#151B31" stroke-width="3" stroke-linecap="round" stroke-linejoin="round"/>
    <defs>
        <filter id="filter0_d_2622_65445" x="13.3108" y="13.3125" width="101.378" height="105.375" filterUnits="userSpaceOnUse" color-interpolation-filters="sRGB">
            <feFlood flood-opacity="0" result="BackgroundImageFix"/>
            <feColorMatrix in="SourceAlpha" type="matrix" values="0 0 0 0 0 0 0 0 0 0 0 0 0 0 0 0 0 0 127 0" result="hardAlpha"/>
            <feOffset dy="4"/>
            <feColorMatrix type="matrix" values="0 0 0 0 0 0 0 0 0 0 0 0 0 0 0 0 0 0 1 0"/>
            <feBlend mode="normal" in2="BackgroundImageFix" result="effect1_dropShadow_2622_65445"/>
            <feBlend mode="normal" in="SourceGraphic" in2="effect1_dropShadow_2622_65445" result="shape"/>
        </filter>
    </defs>
</svg>
