<svg width="128" height="128" viewBox="0 0 128 128" fill="none" xmlns="http://www.w3.org/2000/svg">
    <g filter="url(#filter0_d_2532_47741)">
        <circle cx="64" cy="64" r="50.6755" transform="rotate(18.2567 64 64)" fill="#86E0C1"/>
        <circle cx="64" cy="64" r="49.1755" transform="rotate(18.2567 64 64)" stroke="#151B31" stroke-width="3"/>
    </g>
    <path d="M80 98C84.0853 96 93.2047 89.6 97 80" stroke="white" stroke-width="6" stroke-linecap="round"/>
    <path fill-rule="evenodd" clip-rule="evenodd" d="M62 15.75C62 14.7835 62.7835 14 63.75 14C64.7165 14 65.5 14.7835 65.5 15.75V23.25C65.5 24.2165 64.7165 25 63.75 25C62.7835 25 62 24.2165 62 23.25V15.75ZM94.1962 38.7227C94.9016 39.3833 94.938 40.4908 94.2773 41.1962L63.7008 73.8457L41.9445 57.3959C41.1736 56.813 41.0212 55.7155 41.6041 54.9446C42.187 54.1736 43.2845 54.0212 44.0554 54.6041L63.2992 69.1543L91.7227 38.8038C92.3833 38.0983 93.4908 38.062 94.1962 38.7227ZM63.75 103C62.7835 103 62 103.784 62 104.75V112.25C62 113.216 62.7835 114 63.75 114C64.7165 114 65.5 113.216 65.5 112.25V104.75C65.5 103.784 64.7165 103 63.75 103ZM23.25 64C24.2165 64 25 64.7835 25 65.75C25 66.7165 24.2165 67.5 23.25 67.5H15.75C14.7835 67.5 14 66.7165 14 65.75C14 64.7835 14.7835 64 15.75 64H23.25ZM114 65.75C114 64.7835 113.216 64 112.25 64H104.75C103.784 64 103 64.7835 103 65.75C103 66.7165 103.784 67.5 104.75 67.5H112.25C113.216 67.5 114 66.7165 114 65.75Z" fill="#151B31"/>
    <defs>
        <filter id="filter0_d_2532_47741" x="13.3108" y="13.3125" width="101.378" height="105.375" filterUnits="userSpaceOnUse" color-interpolation-filters="sRGB">
            <feFlood flood-opacity="0" result="BackgroundImageFix"/>
            <feColorMatrix in="SourceAlpha" type="matrix" values="0 0 0 0 0 0 0 0 0 0 0 0 0 0 0 0 0 0 127 0" result="hardAlpha"/>
            <feOffset dy="4"/>
            <feColorMatrix type="matrix" values="0 0 0 0 0 0 0 0 0 0 0 0 0 0 0 0 0 0 1 0"/>
            <feBlend mode="normal" in2="BackgroundImageFix" result="effect1_dropShadow_2532_47741"/>
            <feBlend mode="normal" in="SourceGraphic" in2="effect1_dropShadow_2532_47741" result="shape"/>
        </filter>
    </defs>
</svg>
