<svg width="116" height="116" viewBox="0 0 116 116" fill="none" xmlns="http://www.w3.org/2000/svg">
    <path d="M65.1501 32.0557C65.2024 27.9569 65.2257 23.3056 65.278 19.2069C65.3921 16.752 65.252 14.2927 64.8597 11.8625C64.4995 10.0223 63.8026 8.16607 62.3736 6.84633C62.0051 6.45715 61.5024 6.19751 60.9504 6.11135C59.8584 6.02014 59.0568 7.00728 58.5572 7.89784C55.833 12.7262 54.9965 18.2573 54.1949 23.6597" fill="#FEFDFB"/>
    <path d="M65.1501 32.0557C65.2024 27.9569 65.2257 23.3056 65.278 19.2069C65.3921 16.752 65.252 14.2927 64.8597 11.8625C64.4995 10.0223 63.8026 8.16607 62.3736 6.84633C62.0051 6.45715 61.5024 6.19751 60.9504 6.11135C59.8584 6.02014 59.0568 7.00728 58.5572 7.89784C55.833 12.7262 54.9965 18.2573 54.1949 23.6597" stroke="#151B31" stroke-width="2" stroke-miterlimit="10"/>
    <path d="M29.8257 57.7805C29.0253 44.5248 27.6568 31.0109 28.5037 20.8794C28.7825 17.5797 29.2008 13.4589 29.8205 10.2005C30.8532 4.94364 36.1307 4.29301 37.7883 10.9338C39.0823 15.7933 40.016 20.7417 40.5818 25.7386L40.933 30.257C40.8504 28.6717 40.7316 27.1845 40.5818 25.7386L40.2101 21.024C49.1331 17.4093 60.1114 21.938 65.2029 30.1176C67.7332 34.1867 69.0551 39.0098 72.1741 42.6452C76.9144 48.1757 84.655 49.7817 91.7553 51.4238C94.7606 52.1106 97.8072 52.88 100.467 54.4498C103.126 56.0196 105.393 58.5087 105.992 61.5399C106.591 64.5711 104.443 69.8382 97.58 69.7453C91.7294 69.6678 85.884 69.3321 80.023 69.1256C75.5254 68.9707 70.6197 68.9345 67.0515 71.6765C64.4283 73.6905 62.9825 76.9386 62.4764 80.2021C61.9704 83.4657 62.2905 86.7964 62.6159 90.0858C60.886 99.67 49.2984 100.476 39.198 96.6388C35.2581 95.1927 31.6443 92.9795 28.5657 90.1271C30.8171 81.2607 30.5641 69.611 29.8257 57.7805Z" fill="#FEFDFB" stroke="#151B31" stroke-width="2" stroke-miterlimit="10"/>
    <path d="M73.8767 39.9178C73.5415 39.0938 72.6017 38.6975 71.7776 39.0327C70.9536 39.3679 70.5573 40.3077 70.8925 41.1317L71.7324 43.1965C72.0676 44.0206 73.0074 44.4168 73.8314 44.0816C74.6555 43.7464 75.0518 42.8067 74.7166 41.9826L73.8767 39.9178Z" fill="#151B31"/>
    <path d="M60.0487 44.2822C59.7548 43.3777 60.2498 42.4063 61.1542 42.1125C62.0587 41.8186 63.0301 42.3136 63.3239 43.218L64.0481 45.4472C64.342 46.3516 63.847 47.323 62.9426 47.6169C62.0381 47.9107 61.0668 47.4158 60.7729 46.5113L60.0487 44.2822Z" fill="#151B31"/>
    <path fill-rule="evenodd" clip-rule="evenodd" d="M58.5993 61.9842L59.1548 63.6962C59.5048 64.7748 60.3476 66.4703 61.7146 67.9509C63.075 69.4243 64.9161 70.6462 67.2759 70.8941L67.1132 72.4427C64.2788 72.1449 62.1111 70.6757 60.5705 69.0072C59.5807 67.9351 58.834 66.7648 58.3178 65.7278L56.5214 68.9949L55.1569 68.2447L58.5993 61.9842Z" fill="#151B31"/>
    <path d="M103.754 44.542C104.136 45.1131 104.363 45.7692 104.414 46.449C104.465 47.1289 104.338 47.8102 104.045 48.4292C103.746 49.0486 103.271 49.5714 102.676 49.9357C102.082 50.3 101.392 50.4905 100.69 50.4846C96.5973 50.4246 96.1612 47.3552 96.9831 44.9564C97.2464 44.3068 97.6992 43.7468 98.2856 43.3456C98.8719 42.9444 99.5661 42.7197 100.282 42.6993C100.973 42.696 101.654 42.8633 102.261 43.1855C102.868 43.5076 103.382 43.9743 103.754 44.542Z" fill="#151B31"/>
    <path d="M19.8419 67.9219L28.6183 70.9745V77.8429H33.5788L31.6709 83.185L35.8683 86.6192L33.5788 90.435L38.5393 88.5271L40.0656 92.3429L42.7367 90.435L50.3683 96.5403L52.2762 92.3429H61.0525L63.7235 85.8561L66.7761 86.6192V77.8429L71.3551 80.1324L77.4604 74.7903L77.8419 80.1324L82.4209 83.9482L84.7104 88.5271L77.8419 94.2508L80.8946 98.8298H73.263L69.4472 107.988L61.0525 105.698L58.3814 111.422L50.3683 105.698L46.5525 111.422L35.8683 103.79L30.5262 107.988L25.5656 100.738L16.4077 102.264L16.7893 94.2508L9.9209 92.7245L16.4077 87.764L11.8288 82.4219L16.7893 80.1324L14.1183 73.6456L19.8419 71.7377V67.9219Z" fill="#FF5858"/>
    <path fill-rule="evenodd" clip-rule="evenodd" d="M18.9645 66.6875L29.496 70.3507V76.9654H34.8243L32.7056 82.8977L37.0112 86.4204L35.6429 88.701L39.0327 87.3972L40.4654 90.979L42.7668 89.3352L50.0361 95.1506L51.7112 91.4654H60.4649L63.2009 84.8208L65.8987 85.4953V76.423L71.2208 79.084L78.2102 72.9682L78.6909 79.6974L83.1239 83.3916L85.8064 88.7565L79.0098 94.4203L82.5346 99.7075H73.8482L69.9608 109.037L61.5352 106.74L58.7305 112.75L50.5959 106.939L45.2538 112.663L35.8935 104.887L30.3314 109.257L25.1577 101.696L15.4795 103.309L15.8777 94.9473L7.89062 93.1724L15.1376 87.6306L10.407 82.1116L15.6575 79.6884L12.9489 73.1104L18.9645 71.1052V66.6875ZM20.7197 69.1564V72.3703L15.2879 74.1809L17.9215 80.5766L13.2508 82.7323L17.6782 87.8975L11.9515 92.2768L17.7013 93.5545L17.3362 101.22L25.9739 99.78L30.7212 106.718L35.8433 102.694L44.7989 110.181L50.141 104.457L58.0327 110.094L60.5701 104.657L68.934 106.938L72.6781 97.9522H79.2549L76.6744 94.0816L83.6147 88.298L81.7182 84.505L76.9933 80.5676L76.7108 76.6126L71.4898 81.181L67.654 79.2631V87.7434L64.2465 86.8915L61.6404 93.2207H52.8414L50.7007 97.9302L42.7069 91.5351L39.6661 93.707L38.0462 89.6572L31.515 92.1693L34.7256 86.8183L30.6365 83.4726L32.3336 78.7207H27.7408V71.5985L20.7197 69.1564Z" fill="#E62424"/>
</svg>
