<svg width="16" height="16" viewBox="0 0 16 16" fill="none" xmlns="http://www.w3.org/2000/svg">
    <path d="M10.25 11.8889H14L12.9463 10.7962C12.6605 10.4998 12.5 10.0979 12.5 9.67879V7.22223C12.5 5.19033 11.2478 3.46174 9.5 2.8211V2.55556C9.5 1.69645 8.82843 1 8 1C7.17157 1 6.5 1.69645 6.5 2.55556V2.8211C4.75221 3.46174 3.5 5.19033 3.5 7.22223V9.67879C3.5 10.0979 3.33946 10.4998 3.0537 10.7962L2 11.8889H5.75M10.25 11.8889V12.6667C10.25 13.9553 9.24264 15 8 15C6.75736 15 5.75 13.9553 5.75 12.6667V11.8889M10.25 11.8889H5.75" stroke="#808080" stroke-linecap="round" stroke-linejoin="round"/>
</svg>
