<svg width="16" height="16" viewBox="0 0 16 16" fill="none" xmlns="http://www.w3.org/2000/svg">
    <path fill-rule="evenodd" clip-rule="evenodd" d="M11.2667 15.0002C13.3287 15.0002 15.0002 13.3287 15.0002 11.2667C15.0002 9.20476 13.3287 7.5332 11.2667 7.5332C9.20476 7.5332 7.5332 9.20476 7.5332 11.2667C7.5332 13.3287 9.20476 15.0002 11.2667 15.0002Z" stroke="#808080" stroke-width="0.9" stroke-linecap="round" stroke-linejoin="round"/>
    <path d="M10.0996 10.5691C10.0996 9.9247 10.622 9.40234 11.2663 9.40234C11.9107 9.40234 12.4331 9.9247 12.4331 10.5691C12.4331 11.2134 11.9107 11.7358 11.2663 11.7358" stroke="#808080" stroke-width="0.9" stroke-linecap="round" stroke-linejoin="round"/>
    <path d="M11.2665 13.1348C11.3954 13.1348 11.4999 13.2392 11.4999 13.3681C11.4999 13.497 11.3954 13.6015 11.2665 13.6015C11.1377 13.6015 11.0332 13.497 11.0332 13.3681C11.0332 13.2392 11.1377 13.1348 11.2665 13.1348" stroke="#808080" stroke-width="0.9" stroke-linecap="round" stroke-linejoin="round"/>
    <path d="M7.05694 14.9382C3.46463 14.4498 0.839423 11.2998 1.00658 7.67827C1.17373 4.05676 4.07794 1.16195 7.69998 1.00653C11.322 0.851116 14.4635 3.48652 14.9403 7.0804" stroke="#808080" stroke-width="0.9" stroke-linecap="round" stroke-linejoin="round"/>
    <path d="M6.3133 14.7963C5.36685 13.4075 4.7334 10.8836 4.7334 8.0007C4.7334 5.1178 5.36685 2.59457 6.3133 1.20508" stroke="#808080" stroke-width="0.9" stroke-linecap="round" stroke-linejoin="round"/>
    <path d="M1.01465 7.5332H7.06606" stroke="#808080" stroke-width="0.9" stroke-linecap="round" stroke-linejoin="round"/>
    <path d="M2.39844 3.80078H13.5996" stroke="#808080" stroke-width="0.9" stroke-linecap="round" stroke-linejoin="round"/>
    <path d="M1.80664 11.2676H5.0212" stroke="#808080" stroke-width="0.9" stroke-linecap="round" stroke-linejoin="round"/>
    <path d="M9.68652 1.20508C10.4918 2.56454 10.9823 4.08714 11.1221 5.66103" stroke="#808080" stroke-width="0.9" stroke-linecap="round" stroke-linejoin="round"/>
</svg>
